<?xml version="1.0" standalone="no"?>
<!DOCTYPE svg PUBLIC "-//W3C//DTD SVG 1.1//EN" "http://www.w3.org/Graphics/SVG/1.1/DTD/svg11.dtd" >
<!--
2013-9-30: Created.
-->
<svg>
<metadata>
Created by iconfont
</metadata>
<defs>

<font id="iconfont" horiz-adv-x="1024" >
  <font-face
    font-family="iconfont"
    font-weight="500"
    font-stretch="normal"
    units-per-em="1024"
    ascent="896"
    descent="-128"
  />
    <missing-glyph />
    
    <glyph glyph-name="x" unicode="x" horiz-adv-x="1001"
d="M281 543q-27 -1 -53 -1h-83q-18 0 -36.5 -6t-32.5 -18.5t-23 -32t-9 -45.5v-76h912v41q0 16 -0.5 30t-0.5 18q0 13 -5 29t-17 29.5t-31.5 22.5t-49.5 9h-133v-97h-438v97zM955 310v-52q0 -23 0.5 -52t0.5 -58t-10.5 -47.5t-26 -30t-33 -16t-31.5 -4.5q-14 -1 -29.5 -0.5
t-29.5 0.5h-32l-45 128h-439l-44 -128h-29h-34q-20 0 -45 1q-25 0 -41 9.5t-25.5 23t-13.5 29.5t-4 30v167h911zM163 247q-12 0 -21 -8.5t-9 -21.5t9 -21.5t21 -8.5q13 0 22 8.5t9 21.5t-9 21.5t-22 8.5zM316 123q-8 -26 -14 -48q-5 -19 -10.5 -37t-7.5 -25t-3 -15t1 -14.5
t9.5 -10.5t21.5 -4h37h67h81h80h64h36q23 0 34 12t2 38q-5 13 -9.5 30.5t-9.5 34.5q-5 19 -11 39h-368zM336 498v228q0 11 2.5 23t10 21.5t20.5 15.5t34 6h188q31 0 51.5 -14.5t20.5 -52.5v-227h-327z" />
    

    
    <glyph glyph-name="check" unicode="&#58949;" d="M887.904 597.792c-12.864 12.064-33.152 11.488-45.216-1.408L415.936 142.016l-233.12 229.696C170.208 384.128 149.952 384 137.536 371.392c-12.416-12.576-12.256-32.864 0.352-45.248l256.48-252.672c0.096-0.096 0.224-0.128 0.32-0.224 0.096-0.096 0.128-0.224 0.224-0.32 2.016-1.92 4.448-3.008 6.784-4.288 1.152-0.672 2.144-1.664 3.36-2.144 3.776-1.472 7.776-2.24 11.744-2.24 4.192 0 8.384 0.832 12.288 2.496 1.312 0.544 2.336 1.664 3.552 2.368 2.4 1.408 4.896 2.592 6.944 4.672 0.096 0.096 0.128 0.256 0.224 0.352 0.064 0.096 0.192 0.128 0.288 0.224l449.184 478.208C901.44 565.408 900.768 585.664 887.904 597.792z"  horiz-adv-x="1024" />

    
    <glyph glyph-name="liebiao" unicode="&#58882;" d="M296.288 482.304l441.696 0 0-76.416-441.696 0 0 76.416ZM296.288 329.408l441.696 0 0-76.448-441.696 0 0 76.448ZM296.288 176.544l441.696 0 0-76.448-441.696 0 0 76.448ZM810.24-180.256 224-180.256c-77.312 0-140.128 62.88-140.128 140.16L83.872 622.464c0 77.344 62.88 140.16 140.128 140.16l586.24 0c77.312 0 140.128-62.88 140.128-140.16l0-662.56C950.368-117.376 887.552-180.256 810.24-180.256zM224 686.208c-35.168 0-63.712-28.608-63.712-63.744l0-662.56c0-35.168 28.576-63.712 63.712-63.712l586.24 0c35.168 0 63.712 28.576 63.712 63.712L873.952 622.464c0 35.168-28.576 63.744-63.712 63.744L224 686.208z"  horiz-adv-x="1024" />

    
    <glyph glyph-name="iconfontyuandian" unicode="&#58947;" d="M784 315.002C784 162.991 661.002 40 509 40c-152.003 0-275 122.991-275 275.002C234 467.001 356.998 590 509 590 661.004 590.004 784 467.001 784 315.002z"  horiz-adv-x="1024" />

    
    <glyph glyph-name="contextdelete" unicode="&#58911;" d="M362.666667 684 277.333333 684C277.333333 756.533333 332.8 812 405.333333 812L405.333333 726.666667C379.733333 726.666667 362.666667 709.6 362.666667 684L362.666667 684ZM704 684 618.666667 684C618.666667 709.6 601.6 726.666667 576 726.666667L576 812C648.533333 812 704 756.533333 704 684L704 684ZM704 556 277.333333 556 277.333333 684 362.666667 684 362.666667 641.333333 618.666667 641.333333 618.666667 684 704 684 704 556ZM405.3312 812l170.6688 0 0-85.3312-170.6688 0 0 85.3312ZM874.666669 556 106.666667 556C81.066667 556 64 573.066667 64 598.666667 64 624.266667 81.066667 641.333333 106.666667 641.333333L874.666669 641.333333C900.266669 641.333333 917.333331 624.266667 917.333331 598.666667 917.333331 573.066667 900.266669 556 874.666669 556L874.666669 556ZM789.333331-212 192-212C166.4-212 149.333333-194.933331 149.333333-169.333331L149.333333 428C149.333333 453.6 166.4 470.666667 192 470.666667L789.333331 470.666667C814.933331 470.666667 832 453.6 832 428L832-169.333331C832-194.933331 814.933331-212 789.333331-212L789.333331-212ZM234.666667-126.666669 746.666669-126.666669 746.666669 385.333333 234.666667 385.333333 234.666667-126.666669 234.666667-126.666669ZM405.333333-41.333331C379.733333-41.333331 362.666667-24.266669 362.666667 1.333331L362.666667 257.333333C362.666667 282.933333 379.733333 300 405.333333 300 430.933333 300 448 282.933333 448 257.333333L448 1.333331C448-24.266669 430.933333-41.333331 405.333333-41.333331L405.333333-41.333331ZM576-41.333331C550.4-41.333331 533.333333-24.266669 533.333333 1.333331L533.333333 257.333333C533.333333 282.933333 550.4 300 576 300 601.6 300 618.666667 282.933333 618.666667 257.333333L618.666667 1.333331C618.666667-24.266669 601.6-41.333331 576-41.333331L576-41.333331Z"  horiz-adv-x="1024" />

    
    <glyph glyph-name="closecircled" unicode="&#58902;" d="M512 746C264.6 746 64 545.4 64 298c0-247.4 200.6-448 448-448 247.4 0 448 200.6 448 448C960 545.4 759.4 746 512 746zM728.6 147c3-3 4.6-7 4.6-11.2 0-4.2-1.6-8.4-4.6-11.2l-43.2-43.4c-3.2-3.2-7.2-4.6-11.2-4.6-4 0-8.2 1.6-11.2 4.6L512 232.4l-150.8-151.4c-3-3.2-7.2-4.6-11.2-4.6-4 0-8.2 1.6-11.2 4.6l-43.2 43.4c-3 3-4.6 7-4.6 11.2 0 4.2 1.6 8.4 4.6 11.2l151.4 152-151.8 150c-6.2 6.2-6.2 16.4 0 22.6l43.2 43.4c3 3 7 4.6 11.2 4.6 4.2 0 8.2-1.6 11.2-4.6l151.4-149.4 151.4 149.4c3 3 7 4.6 11.2 4.6 4.2 0 8.2-1.6 11.2-4.6l43.2-43.4c6.2-6.2 6.2-16.4 0-22.6l-151.8-150L728.6 147z"  horiz-adv-x="1024" />

    
    <glyph glyph-name="add" unicode="&#58918;" d="M116.364 361.986h791.273v-171.241h-791.273v171.241zM424.081 661.658h175.838v-770.586h-175.838v770.586z"  horiz-adv-x="1024" />

    
    <glyph glyph-name="youhuijuan2" unicode="&#59167;" d="M876.017664 364.101376l0 245.66784c0 31.194112-25.36448 56.569856-56.544256 56.569856l-240.468992-0.039936-10.293248 0.039936c-15.75424 0-39.5776 0-55.122944-15.570944L146.225152 283.405056c-8.832-8.832-13.70112-20.558848-13.70112-33.022976 0-12.504064 4.842496-24.231936 13.674496-33.062912L427.036672-63.47904c8.805376-8.844288 20.533248-13.70112 33.009664-13.70112 12.491776 0 24.2432 4.856832 33.036288 13.688832l367.377408 367.376384C876.20096 319.61472 876.122112 342.225664 876.017664 364.101376zM827.60704 336.749312 459.88864-30.626048 179.078144 250.539776l366.967808 367.034368c3.6864 2.289664 16.978944 2.289664 22.50752 2.289664l10.44992-0.0256 240.468992 0.0256c5.567488 0 10.083328-4.527104 10.083328-10.094592l0-245.865472C829.595648 355.072768 829.645824 340.278016 827.60704 336.749312zM690.168832 573.40288c-51.331072 0-92.949504-41.618432-92.949504-92.949504 0-51.31776 41.618432-92.923904 92.949504-92.923904 51.318784 0 92.924928 41.60512 92.924928 92.923904C783.09376 531.784448 741.48864 573.40288 690.168832 573.40288zM690.168832 433.991424c-25.665536 0-46.475264 20.796416-46.475264 46.461952 0 25.665536 20.808704 46.475264 46.475264 46.475264 25.653248 0 46.461952-20.808704 46.461952-46.475264C736.630784 454.786816 715.82208 433.991424 690.168832 433.991424z"  horiz-adv-x="1024" />

    
    <glyph glyph-name="home" unicode="&#58909;" d="M1007.072 257.52l-495.056 463.328-495.056-461.968c-9.68-9.040-10.224-24.24-1.168-33.92 9.040-9.68 24.24-10.224 33.92-1.168l462.272 431.36 462.288-432.672c4.64-4.336 10.528-6.48 16.4-6.48 6.4 0 12.8 2.544 17.52 7.6 9.056 9.68 8.56 24.864-1.12 33.92zM856 248c-13.248 0-24-10.752-24-24v-368h-192v256h-256v-256h-192v368c0 13.248-10.736 24-24 24s-24-10.752-24-24v-416h288v256h160v-256h288v416c0 13.248-10.752 24-24 24zM688 592h144v-128c0-13.264 10.752-24 24-24s24 10.736 24 24v176h-192c-13.248 0-24-10.736-24-24s10.752-24 24-24z"  horiz-adv-x="1024" />

    
    <glyph glyph-name="dianhua1" unicode="&#59088;" d="M512.744 870.691c-267.925 0-485.889-217.971-485.889-485.889 0-267.903 217.971-485.86 485.889-485.86s485.889 217.957 485.889 485.86c0.007 267.918-217.964 485.889-485.889 485.889zM512.744-73.849c-252.911 0-458.679 205.754-458.679 458.643 0 252.919 205.761 458.679 458.679 458.679s458.679-205.761 458.679-458.679c-0-252.897-205.761-458.643-458.679-458.643zM698.463 273.58c-21.097 15.83-37.866 22.578-56.095 22.578-26.516 0-49.52-14.927-83.088-42.83-6.365-5.708-10.317-5.708-11.618-5.708-8.468 0-19.551 9.92-23.597 15.223l-3.706 3.995c-3.757 3.316-92.487 81.527-130.072 110.983-3.786 2.984-3.865 4.646-3.909 5.534-0.311 6.647 6.654 17.846 13.865 25.808 11.127 5.744 32.621 20.143 40.496 48.27 8.916 31.797-2.941 68.58-35.244 109.322-26.819 33.726-54.91 50.828-83.492 50.828-35.381 0-62.381-26.985-76.159-52.714-109.907-135.989 89.59-329.901 98.224-338.174 6.423-6.069 158.676-148.77 279.391-148.77 20.548 0 39.477 4.046 56.261 12.015 52.258 20.664 79.815 46.666 84.222 79.468 4.559 33.835-16.878 67.922-65.48 104.17zM736.979 173.044c-2.991-22.246-25.129-41.211-67.669-57.952l-0.91-0.397c-13.186-6.336-28.308-9.551-44.932-9.551-88.022 0-209.012 92.444-260.628 141.271-7.846 7.521-191.116 185.495-95.081 302.265l1.568 2.37c3.41 6.568 21.986 39.326 52.685 39.326 19.869 0 40.792-13.641 62.171-40.54 26.566-33.51 36.783-62.128 30.359-85.060-5.484-19.573-21.661-29.045-28.365-32.216l-2.247-1.055-1.727-1.792c-5.65-5.852-24.009-26.574-23.012-47.656 0.47-9.913 5.26-18.525 14.269-25.627 35.944-28.156 120.145-102.284 128.374-109.531l1.055-1.149c3.186-3.967 21.437-25.345 44.773-25.345 10.397 0 20.425 4.256 29.399 12.319 28.271 23.488 47.056 36.219 65.307 36.219 11.871 0 23.756-5.123 39.795-17.159 39.449-29.413 57.894-55.907 54.816-78.738zM706.728 386.955c-5.238 145.23-145.064 188.443-150.93 190.184-10.455 3.179-21.588 4.862-32.202 4.862-33.538 0-57.128-15.635-61.593-40.829-4.183-23.951 3.381-39.029 10.462-47.454 13.482-16.040 32.852-18.438 43.206-18.438 2.334 0 4.046 0.123 4.429 0.159 53.667 2.68 78.362-48.689 81.31-55.315 0.014-1.308-0.014-3.056-0.022-4.573-0.202-21.068-0.679-70.415 40.113-81.245 4.321-1.149 8.684-1.734 12.983-1.734 27.939 0 46.009 23.698 51.529 47.179l0.838 3.562-0.123 3.641zM654.492 359.782c-1.929 0-3.938 0.267-5.975 0.816-17.911 4.754-20.151 29.095-19.905 54.693 0.051 5.505 0.014 7.427-0.159 8.945l-0.296 1.676c-2.485 10.079-34.745 76.845-103.982 76.845-1.799 0-3.613-0.051-5.896-0.173-0.441-0.036-1.351-0.094-2.594-0.094-5.614 0-15.989 1.134-22.376 8.735-4.964 5.896-6.43 14.161-4.501 25.23 2.399 13.511 19.544 18.33 34.796 18.33 7.962 0 16.357-1.272 24.37-3.706 5.18-1.539 127.023-39.188 131.56-165.099-0.065-0.26-6.38-26.198-25.042-26.198zM812.582 458.916c-6.098 172.757-173.212 225.081-180.351 227.234-12.16 3.627-25.092 5.549-37.389 5.549-38.17 0-64.844-17.275-69.613-44.997-3.836-21.617-0.022-39.456 11.35-53.017 17.268-20.598 43.523-21.075 53.371-20.252 67.807 3.54 101.114-60.192 104.416-71.029 0.116-1.012 0.217-2.326 0.354-3.887l0.108-1.293c3.504-41.544 11.025-81.874 42.078-95.551 6.546-2.839 13.229-4.277 19.876-4.277 30.836 0 48.921 29.138 55.018 54.065l0.91 3.678-0.13 3.779zM785.38 457.962c-0.332-1.358-8.403-33.358-28.597-33.358-2.89 0-5.946 0.686-8.981 2.001-18.026 7.948-23.185 41.313-25.851 72.915l-0.116 1.293c-0.217 2.558-0.405 4.624-0.592 6.011l-0.195 1.127c-2.731 12.181-40.287 92.856-125.397 92.856-2.428 0-4.877-0.065-7.377-0.202l-0.838-0.065c-0.484-0.029-1.394-0.072-2.558-0.072-6.9 0-19.638 1.387-27.448 10.707-5.953 7.102-7.774 17.456-5.397 30.851 2.384 13.865 18.792 22.47 42.808 22.47 9.703 0 19.934-1.524 29.572-4.4 6.351-1.929 155.554-48.639 160.966-202.134v0z"  horiz-adv-x="1024" />

    
    <glyph glyph-name="search" unicode="&#58910;" d="M937.024 70.528l-176.512 176.576c-2.624 2.624-5.568 4.608-8.32 6.784 38.208 58.688 60.544 128.512 60.544 203.776 0 206.784-167.552 374.4-374.4 374.4C231.616 832.064 64 664.448 64 457.664c0-206.784 167.68-374.4 374.4-374.4 75.264 0 145.216 22.4 203.904 60.608 2.176-2.816 4.096-5.696 6.72-8.256l176.512-176.576C840.96-56.32 861.056-64 881.216-64c20.16 0 40.32 7.68 55.744 23.04C967.68-10.176 967.68 39.744 937.024 70.528M438.336 201.536c-141.184 0-256.128 114.944-256.128 256.128 0 141.184 114.944 256.128 256.128 256.128 141.184 0 256.128-114.944 256.128-256.128C694.464 316.48 579.52 201.536 438.336 201.536"  horiz-adv-x="1024" />

    
    <glyph glyph-name="resetpassword" unicode="&#58966;" d="M512.111957 895.349202C229.341911 895.349202 0.111957 666.306988 0.111957 383.768532 0.111957 101.230913 229.341911-127.811301 512.111957-127.811301 794.882004-127.811301 1024.111957 101.230913 1024.111957 383.768532 1024.111957 666.306988 794.882004 895.349202 512.111957 895.349202L512.111957 895.349202ZM812.465425 111.300666C812.465425 69.903725 778.879904 36.310487 737.37601 36.310487L286.810974 36.310487C245.380101 36.310487 211.758489 69.903725 211.758489 111.300666L211.758489 411.445047C211.758489 452.878046 245.380101 486.472124 286.810974 486.472124L311.851971 486.472124 311.851971 611.54018C311.851971 708.181124 401.532549 786.578765 512.093491 786.578765 622.672903 786.578765 712.389571 708.181124 712.389571 611.54018L712.389571 573.990998 711.895197 573.990998C708.834109 552.779687 690.629571 536.477877 668.521243 536.477877 646.486777 536.477877 628.209217 552.778851 625.221151 573.990159L624.780496 573.990159 624.780496 611.539342C624.780496 652.935443 574.275471 699.022152 512.093491 699.022152 449.929137 699.022152 399.497977 652.935443 399.497977 611.539342L399.497977 486.471287 737.37601 486.471287C778.862278 486.471287 812.465425 452.87721 812.465425 411.444207L812.465425 111.300666 812.465425 111.300666ZM599.940943 260.216767C614.331498 260.216767 622.800483 271.353289 622.800483 285.786576 622.800483 300.183798 614.331498 310.368447 599.940943 310.368447L544.559329 310.368447 601.791696 367.811407C612.021623 378.105921 612.021623 394.737323 601.791696 404.994935 591.544143 415.252548 574.935197 415.252548 564.706109 404.994935L511.671303 351.839188 458.837937 404.776045C448.60885 415.032818 431.999904 415.032818 421.752351 404.776045 411.522423 394.518432 411.522423 377.886191 421.752351 367.629418L478.911696 310.332382 424.26367 310.369283C409.890737 310.369283 401.421756 300.183798 401.421756 285.787412 401.421756 271.354129 409.891577 260.217607 424.26367 260.217607L480.744823 260.217607 480.744823 228.857709 424.26367 228.857709C409.890737 228.857709 401.421756 219.516751 401.421756 205.119529 401.421756 190.686246 409.891577 178.706033 424.26367 178.706033L480.744823 178.706033 480.744823 141.119109C480.744823 123.095535 494.127329 109.760891 512.111957 109.760891 530.094909 109.760891 543.478252 123.095535 543.478252 141.119109L543.478252 178.706033 601.554159 178.706033C615.944718 178.706033 622.800483 188.342197 622.800483 202.738582 622.800483 221.495142 612.792143 228.858549 598.400744 228.858549L598.400744 228.856873 543.478252 228.856873 543.478252 260.216767 599.940943 260.216767"  horiz-adv-x="1025" />

    
    <glyph glyph-name="quan" unicode="&#58886;" d="M512 498.14c63.037 0 114.14-51.103 114.14-114.14s-51.103-114.14-114.14-114.14-114.14 51.103-114.14 114.14 51.103 114.14 114.14 114.14z"  horiz-adv-x="1024" />

    
    <glyph glyph-name="shijian" unicode="&#58929;" d="M511.943207 823.814957c-246.458181 0-446.204481-196.938348-446.204481-439.842587 0-242.847957 199.7463-439.786305 446.204481-439.786305 246.51344 0 446.319092 196.938348 446.319092 439.786305C958.262298 626.87661 758.456646 823.814957 511.943207 823.814957M663.142837 339.724611 511.943207 339.724611c-13.529131 0-24.588001 10.946306-24.588001 24.531719L487.355205 603.492016c0 13.527085 11.059893 24.531719 24.588001 24.531719 13.70207 0 24.64633-11.004635 24.64633-24.531719l0-214.59038 126.553301 0c13.641695 0 24.586978-11.005658 24.586978-24.64633C687.729815 350.670917 676.784532 339.724611 663.142837 339.724611"  horiz-adv-x="1024" />

    
    <glyph glyph-name="yuanquanweixuanfuben" unicode="&#58898;" d="M510.756683-63.99936c-60.499909 0-119.200846 11.853979-174.473707 35.232432-53.376675 22.577205-101.30936 54.893214-142.465712 96.049566-41.156352 41.154305-73.471338 89.086991-96.048543 142.464689-23.378453 55.271838-35.231409 113.972774-35.231409 174.472684 0 60.499909 11.852956 119.200846 35.231409 174.473707 22.576181 53.376675 54.892191 101.30936 96.048543 142.465712 41.156352 41.156352 89.089038 73.472362 142.465712 96.048543 55.271838 23.378453 113.972774 35.231409 174.473707 35.231409 60.498886 0 119.200846-11.852956 174.472684-35.231409 53.376675-22.577205 101.30936-54.893214 142.465712-96.049566 41.157375-41.155329 73.472362-89.088014 96.048543-142.465712 23.378453-55.269791 35.232432-113.971751 35.232432-174.473707 0-60.501956-11.853979-119.203916-35.233456-174.472684-22.577205-53.378721-54.892191-101.310384-96.04752-142.464689-41.156352-41.157375-89.089038-73.473385-142.464689-96.049566C629.956505-52.145381 571.255569-63.99936 510.756683-63.99936zM510.756683 801.740196c-56.368822 0-111.047142-11.037381-162.514327-32.806173-49.717332-21.028942-94.369298-51.135634-132.716674-89.481987-38.347376-38.347376-68.453045-82.999342-89.481987-132.716674-21.768793-51.467185-32.806173-106.145505-32.806173-162.514327 0-56.368822 11.037381-111.047142 32.806173-162.513304 21.029966-49.719378 51.135634-94.372368 89.481987-132.716674 38.347376-38.3484 82.999342-68.454068 132.716674-89.481987 51.468209-21.769816 106.145505-32.80822 162.514327-32.80822s111.046119 11.037381 162.514327 32.80822c49.717332 21.028942 94.369298 51.134611 132.715651 89.481987 38.347376 38.34533 68.453045 82.996273 89.480964 132.715651 21.769816 51.465139 32.80822 106.143459 32.80822 162.514327 0 56.370869-11.037381 111.048165-32.80822 162.514327-21.028942 49.718355-51.134611 94.371344-89.480964 132.717697-38.347376 38.347376-82.999342 68.453045-132.716674 89.481987C621.803825 790.702815 567.125505 801.740196 510.756683 801.740196z"  horiz-adv-x="1024" />

    
    <glyph glyph-name="xin" unicode="&#58934;" d="M677.51936 703.96928c113.1008 0 204.8-91.6992 204.8-204.77952 0-186.91072-370.3296-435.15904-370.3296-435.15904S141.68064 303.32928 141.68064 499.18976c0 140.78976 91.6992 204.77952 204.77952 204.77952 68.11648 0 128.28672-33.40288 165.5296-84.55168C549.24288 670.5664 609.41312 703.96928 677.51936 703.96928z"  horiz-adv-x="1024" />

    
    <glyph glyph-name="xitong" unicode="&#58893;" d="M342.842368 90.948608c-17.055744-18.096128-33.835008-35.94752-50.671616-53.746688-15.414272-16.294912-37.173248-19.775488-56.451072-8.79104-3.852288 2.194432-7.349248 5.221376-10.529792 8.352768-20.076544 19.77344-40.035328 39.667712-59.99616 59.557888-13.421568 13.37344-18.73408 29.25056-12.065792 47.34464 2.605056 7.069696 7.506944 13.807616 12.831744 19.262464 16.183296 16.579584 33.037312 32.508928 49.757184 48.559104 2.516992 2.415616 2.914304 4.093952 1.403904 7.520256-9.32864 21.16096-18.364416 42.454016-27.188224 63.830016-1.651712 4.000768-3.560448 5.38112-7.954432 5.330944-22.841344-0.259072-45.714432 0.58368-68.521984-0.316416-23.477248-0.925696-40.966144 16.58368-46.573568 35.262464-1.886208 6.281216-2.83648 13.063168-2.909184 19.631104-0.311296 27.84256-0.280576 55.691264-0.08192 83.535872 0.14336 20.1728 8.116224 36.427776 25.254912 47.732736 6.480896 4.2752 13.656064 5.948416 21.325824 5.94432 24.010752-0.012288 48.023552 0.119808 72.031232-0.123904 4.083712-0.041984 5.783552 1.36704 7.215104 4.924416 7.517184 18.68288 15.218688 37.291008 22.985728 55.871488 1.72544 4.127744 3.971072 8.039424 6.114304 12.324864-0.984064 1.031168-1.949696 2.142208-3.014656 3.146752-16.612352 15.679488-33.216512 31.368192-49.865728 47.007744-20.6336 19.382272-21.39648 47.101952-1.552384 67.324928 19.970048 20.350976 40.061952 40.584192 60.27264 60.696576 19.843072 19.746816 46.359552 19.485696 66.031616-0.545792 16.356352-16.65536 32.608256-33.41312 48.777216-50.249728 2.402304-2.501632 4.05504-2.970624 7.510016-1.445888 21.157888 9.334784 42.45504 18.361344 63.827968 27.194368 3.970048 1.640448 5.414912 3.510272 5.363712 7.931904-0.26624 22.84032 0.581632 45.713408-0.318464 68.521984-0.92672 23.478272 16.582656 40.966144 35.260416 46.574592 6.281216 1.886208 13.063168 2.837504 19.631104 2.910208 28.009472 0.310272 56.026112 0.334848 84.036608 0.062464 19.972096-0.19456 36.054016-8.262656 47.235072-25.233408 4.271104-6.482944 5.948416-13.656064 5.94432-21.325824-0.012288-24.010752 0.119808-48.023552-0.124928-72.031232-0.041984-4.084736 1.37216-5.772288 4.927488-7.206912 22.822912-9.207808 45.560832-18.625536 68.3264-27.973632 0.208896-0.630784 0.417792-1.261568 0.626688-1.893376 1.031168 1.512448 1.883136 3.193856 3.121152 4.512768 15.63136 16.657408 31.294464 33.28512 46.999552 49.87392 15.438848 16.3072 37.17632 19.774464 56.45312 8.76032 3.849216-2.199552 7.339008-5.233664 10.519552-8.365056 20.08064-19.769344 40.055808-39.646208 60.009472-59.544576 13.408256-13.371392 18.738176-29.254656 12.024832-47.351808-2.62144-7.067648-7.510016-13.809664-12.83584-19.263488-16.188416-16.575488-33.040384-32.505856-49.778688-48.536576-2.581504-2.471936-2.782208-4.192256-1.311744-7.538688 9.300992-21.173248 18.347008-42.461184 27.160576-63.84128 1.660928-4.028416 3.618816-5.34016 7.980032-5.292032 22.841344 0.25088 45.712384-0.5632 68.523008 0.306176 23.340032 0.889856 40.54528-16.202752 46.418944-34.811904 2.020352-6.398976 2.942976-13.381632 3.021824-20.112384 0.325632-27.84256 0.289792-55.691264 0.084992-83.535872-0.14848-20.1728-8.138752-36.421632-25.284608-47.715328-6.483968-4.271104-13.662208-5.929984-21.330944-5.925888-23.84384 0.014336-47.689728-0.13824-71.53152 0.132096-4.471808 0.0512-6.313984-1.46944-7.883776-5.428224-7.177216-18.101248-14.619648-36.099072-22.125568-54.068224-1.915904-4.586496-4.411392-8.930304-7.251968-14.60736 1.093632-0.7168 2.660352-1.44896 3.858432-2.573312 16.66048-15.627264 33.26976-31.310848 49.895424-46.977024 19.022848-17.924096 21.511168-44.452864 3.972096-63.480832-21.226496-23.02976-43.339776-45.336576-66.249728-66.689024-19.110912-17.811456-44.131328-15.929344-62.554112 2.791424-16.490496 16.756736-32.840704 33.652736-49.106944 50.627584-2.46784 2.57536-4.187136 2.794496-7.538688 1.321984-21.172224-9.30304-42.461184-18.349056-63.84128-27.164672-4.025344-1.659904-5.344256-3.613696-5.296128-7.977984 0.251904-22.841344-0.5632-45.712384 0.3072-68.523008 0.889856-23.340032-16.196608-40.544256-34.807808-46.422016-6.397952-2.020352-13.381632-2.944-20.112384-3.022848-28.008448-0.324608-56.026112-0.345088-84.035584-0.065536-19.969024 0.198656-36.047872 8.276992-47.215616 25.25696-4.265984 6.48704-5.933056 13.661184-5.92896 21.32992 0.014336 23.84384-0.137216 47.689728 0.131072 71.53152 0.050176 4.46464-1.4592 6.309888-5.420032 7.890944-18.702336 7.465984-37.293056 15.212544-55.870464 22.986752C350.908416 86.575104 347.158528 88.766464 342.842368 90.948608zM714.237952 384.284672c-0.172032 111.376384-90.74176 201.8816-202.126336 201.980928-111.694848 0.100352-202.607616-90.991616-202.355712-202.754048 0.251904-111.512576 91.216896-201.961472 202.877952-201.726976C623.839232 182.019072 714.409984 272.992256 714.237952 384.284672z"  horiz-adv-x="1024" />

    
    <glyph glyph-name="dianhua" unicode="&#58901;" d="M513.716666 896c-282.69685 0-511.906364-229.199099-511.906364-511.887436 0-282.688337 229.20849-511.88846 511.906364-511.88846 282.69992 0 511.90841 229.200122 511.90841 511.88846C1025.625077 666.800901 796.416587 896 513.716666 896zM513.716666-86.786343c-260.117697 0-470.913084 210.788797-470.913084 470.897883 0 260.110109 210.795387 470.979748 470.913084 470.979748 260.120767 0 471.000069-210.870662 471.000069-470.979748C984.716735 124.003478 773.83641-86.786343 513.716666-86.786343zM713.931658 211.39485l-0.083915-0.083911-28.16254-28.077475-99.733462 99.561553 28.16254 28.161387c6.082781 6.081509 15.91511 6.163373 22.080783 0l77.652679-77.317946 0-0.082888C719.679804 227.639836 720.347027 217.809957 713.931658 211.39485zM416.65005 278.296563c-141.222042 144.468322-108.311166 232.781694-93.397914 251.277954l101.979711-101.727892c-14.497773-14.496156-0.416503-35.158754 15.497584-54.821583 22.663068-28.076452 48.823939-52.987818 71.569898-71.483054 34.329236-27.910677 52.240899-40.240493 66.155363-26.411533l99.483765-99.31289C661.439015 158.655695 565.457148 126.078743 416.65005 278.296563zM461.059265 463.588663l-28.161517-28.077475-101.895796 101.81078 28.161517 28.161387c6.082781 5.997598 15.914087 6.164397 22.079759 0l79.817061-79.56615 0-0.166799c5.914952-5.832845 6.499284-15.579837 0-22.078855L461.060289 463.588663z"  horiz-adv-x="1026" />

    
    <glyph glyph-name="xiangqing" unicode="&#59049;" d="M951.38875-21.423683l-38.102806-35.719526c-14.288424-14.293541-39.293935-14.293541-53.583382 0l-98.090039 88.559988c-36.910655-20.243043-79.776951-32.147164-125.021411-32.147164-134.553509 0-251.240091 107.161648-254.810407 233.380328L190.072475 232.649943l0 59.532885 198.849884 0c5.951549 21.435195 14.285355 41.678238 25.004487 59.539025L190.072475 351.721853l0 59.532885 273.863345 0-1.193175-1.193175c44.059472 38.108946 102.404298 61.918211 166.700673 61.918211 136.930649 0 256.002558-110.732987 256.002558-239.328807 0-44.059472-13.096273-85.73157-35.718503-120.264061l95.705736-88.565105C960.913685 9.53133 965.677175-8.32741 951.38875-21.423683L951.38875-21.423683 951.38875-21.423683zM629.443317 400.537651c-95.259574 0-171.457-72.630181-171.457-160.745031 0-89.303932 84.538395-167.886685 178.603771-167.886685 95.257527 0 171.464163 72.635297 171.464163 160.746054S723.512786 400.537651 629.443317 400.537651L629.443317 400.537651 629.443317 400.537651zM190.072475 650.589684l447.708741 0 0-59.532885L190.072475 591.056799 190.072475 650.589684 190.072475 650.589684 190.072475 650.589684zM636.590088 517.229351c-38.102806-10.718109-73.827449-25.006534-104.782461-46.436612L190.072475 470.792739l0 59.533908 447.708741 0 0-13.097296L636.590088 517.229351 636.590088 517.229351zM700.886463 529.134495 700.886463 711.315744 125.770983 711.315744l0-597.73771 270.297123 0c13.096273-44.058448 36.910655-84.539418 67.867714-119.070886L125.770983-5.492852c-35.720549 0-64.296375 26.198685-64.296375 59.538001L61.474608 770.853745c0 33.341363 28.575826 59.533908 64.296375 59.533908L700.886463 830.387653c35.723619 0 64.301492-26.192545 64.301492-59.533908l0-241.71925c-10.718109 1.192152-21.435195 3.575432-32.153304 3.575432C722.321658 531.518798 711.603549 529.134495 700.886463 529.134495L700.886463 529.134495 700.886463 529.134495zM700.886463 529.134495"  horiz-adv-x="1024" />

    
    <glyph glyph-name="close" unicode="&#59093;" d="M512-25.6 512-25.6C738.215834-25.6 921.6 157.784166 921.6 384 921.6 610.215834 738.215834 793.6 512 793.6 285.784166 793.6 102.4 610.215834 102.4 384 102.4 157.784166 285.784166-25.6 512-25.6L512-25.6 512-25.6 512-25.6ZM512-128 512-128C229.230208-128 0 101.230208 0 384 0 666.769792 229.230208 896 512 896 794.769792 896 1024 666.769792 1024 384 1024 101.230208 794.769792-128 512-128L512-128 512-128 512-128ZM512 456.407734 367.181118 601.226616C347.218573 621.189161 314.77164 621.218047 294.776797 601.223203 274.822639 581.269045 274.780425 548.811841 294.773384 528.818882L439.592266 384 294.773384 239.181118C274.810839 219.218573 274.781953 186.77164 294.776797 166.776797 314.730955 146.822639 347.188159 146.780425 367.181118 166.773384L512 311.592266 656.818882 166.773384C676.781427 146.810839 709.22836 146.781953 729.223203 166.776797 749.177361 186.730955 749.219575 219.188159 729.226616 239.181118L584.407734 384 729.226616 528.818882C749.189161 548.781427 749.218047 581.22836 729.223203 601.223203 709.269045 621.177361 676.811841 621.219575 656.818882 601.226616L512 456.407734 512 456.407734Z"  horiz-adv-x="1024" />

    
    <glyph glyph-name="down" unicode="&#59017;" d="M-675.719782 907.006681M853.925487 658.405697 958.606641 553.726589 511.897669 107.019665 65.188698 553.726589 169.867806 658.405697l342.029864-342.027817L853.925487 658.405697zM853.925487 658.405697"  horiz-adv-x="1024" />

    
    <glyph glyph-name="zuobiao" unicode="&#59220;" d="M800 480c0 159.36-128.64 288-288 288S224 639.36 224 480c0-59.52 17.92-114.56 48.64-160l0 0 0.64-0.64c0.64-0.64 0.64-1.28 1.28-1.92l211.2-303.36c0 0 0-0.64 0.64-0.64L486.4 12.8l0 0c5.76-7.68 14.72-12.8 25.6-12.8 10.24 0 19.84 5.12 25.6 12.8l0 0 0.64 1.28c0 0 0 0 0 0l211.2 303.36c0.64 0.64 0.64 1.28 1.28 1.92l0.64 0.64 0 0C782.08 365.44 800 420.48 800 480zM698.24 355.2C698.24 355.2 698.24 355.2 698.24 355.2l-0.64-1.28 0 0L512 88.32 326.4 353.92l0 0L326.4 355.2c0 0 0 0.64-0.64 0.64C300.8 392.32 288 435.2 288 480c0 123.52 100.48 224 224 224s224-100.48 224-224C736 435.2 723.2 392.32 698.24 355.2zM512 480m-128 0a20 20 0 1 0 256 0 20 20 0 1 0-256 0Z"  horiz-adv-x="1024" />

    
    <glyph glyph-name="asmkticon0165" unicode="&#59350;" d="M256 384m-64 0a10 10 0 1 0 128 0 10 10 0 1 0-128 0ZM512 384m-64 0a10 10 0 1 0 128 0 10 10 0 1 0-128 0ZM768 384m-64 0a10 10 0 1 0 128 0 10 10 0 1 0-128 0Z"  horiz-adv-x="1024" />

    
    <glyph glyph-name="kefu" unicode="&#58995;" d="M894.254888 540.095354C879.426282 738.585859 713.981757 894.707071 512.108949 894.707071 310.229676 894.707071 144.785151 738.373818 129.744504 540.095354 56.452221 525.692121 0.951939 461.085737 0.951939 383.550061l0-63.96897c0-88.127354 71.601131-159.723313 159.72202-159.723313l95.747879 0L256.421838 319.581091l0 63.96897L256.421838 543.272081 194.144019 543.272081C210.244868 704.691717 346.240343 830.943677 512.108949 830.943677c165.863434 0 301.857616-126.25196 317.959758-287.459556l-62.277818 0 0-159.934061 0-63.96897L767.790888 159.857778l62.277818 0c-29.021091-130.91297-145.954909-228.994586-285.975273-228.994586-22.030222 0-43.424323 2.540606-63.975434 6.989576l0-59.737212c20.763152-3.812848 42.157253-5.717333 63.975434-5.717333 173.065051 0 316.903434 125.193051 345.924525 289.788121 3.388768 20.12703 5.505293 40.671677 5.505293 61.641697l-15.884929 0-42.58004 0-5.505293 0 0 106.343434 0 42.788202 0 106.343434 47.873293 0c44.060444 0 79.859071-47.662545 79.859071-106.343434l0-42.788202c0-58.889051-35.798626-106.343434-79.859071-106.343434l15.888808 0c0-21.182061-1.908364-41.514667-5.509172-61.641697 75.62602 12.712081 133.241535 78.378667 133.241535 157.606788l0 63.756929C1023.259494 461.085737 967.760504 525.692121 894.254888 540.095354L894.254888 540.095354 894.254888 540.095354 894.254888 540.095354zM144.785151 479.303111l47.873293 0 0-106.343434 0-42.788202 0-106.343434L144.785151 223.82804c-44.060444 0-79.859071 47.666424-79.859071 106.343434l0 42.788202C64.71404 431.848727 100.512666 479.303111 144.785151 479.303111L144.785151 479.303111 144.785151 479.303111 144.785151 479.303111zM144.785151 479.303111M141.881232 511.353535c0 0-145.454545-85.979798-118.30303-173.252525s138.989899-156.444444 179.717172-153.858586 23.272727 327.111111 23.272727 327.111111L141.881232 511.353535zM802.998646 511.353535 802.998646 190.060606c0 0 142.222222-0.862384 160.323232 47.407838s31.030303 174.976 12.066909 202.559354C956.426686 467.609859 890.056747 548.20202 802.998646 511.353535z"  horiz-adv-x="1024" />

    
    <glyph glyph-name="gantanhao" unicode="&#58891;" d="M512-128C229.232-128 0 101.232 0 384 0 666.768 229.232 896 512 896 794.768 896 1024 666.768 1024 384 1024 101.232 794.768-128 512-128ZM560 656C560 682.512 538.512 704 512 704 485.488 704 464 682.512 464 656L464 304C464 277.488 485.488 256 512 256 538.512 256 560 277.488 560 304L560 656ZM512 160C485.488 160 464 138.512 464 112 464 85.488 485.488 64 512 64 538.512 64 560 85.488 560 112 560 138.512 538.512 160 512 160Z"  horiz-adv-x="1024" />

    
    <glyph glyph-name="denglu" unicode="&#58963;" d="M869.308849 47.998433c0 162.984025-110.596887 301.388235-260.446777 343.878978 76.729545 36.323277 129.808438 114.445542 129.808438 204.976418 0 125.187187-101.483322 226.670509-226.670509 226.670509S285.329491 722.039993 285.329491 596.853829c0-90.530876 53.079916-168.653141 129.808438-204.976418C265.289062 349.385645 154.693198 210.981435 154.693198 47.998433l0-66.23861 714.616674 0L869.308849 47.998433 869.308849 47.998433z"  horiz-adv-x="1024" />

    
    <glyph glyph-name="jinlingyingcaiwangtubiao62-copy-copy" unicode="&#58890;" d="M746.335 50.526c0-18.814-15.319-34.133-34.133-34.133h-639.113c-18.814 0-34.133 15.319-34.133 34.133v775.236c0 18.814 15.319 34.133 34.133 34.133h639.14c18.814 0 34.133-15.319 34.133-34.133h40.96c0 41.424-33.696 75.093-75.093 75.093h-639.14c-41.424 0-75.093-33.669-75.093-75.093v-775.264c0-41.424 33.696-75.093 75.093-75.093h639.14c41.397 0 75.093 33.669 75.093 75.093v168.51h-40.96v-168.482zM967.467 743.105c-1.174 1.693-2.622 3.168-4.233 4.423-1.174 0.928-29.409 22.582-60.703 37.82-9.339 4.533-18.787 6.827-28.044 6.827-27.307 0-42.271-19.36-44.209-22.036l-36.372-52.538c-0.082-0.137-0.109-0.301-0.191-0.41s-0.219-0.164-0.273-0.301l-249.802-395.127c-1.174-1.884-1.747-3.905-2.267-5.953-0.109-0.41-0.464-0.71-0.546-1.147l-28.59-149.422c-1.53-8.028 1.857-16.247 8.656-20.835 3.441-2.321 7.455-3.495 11.441-3.495 3.851 0 7.7 1.092 11.087 3.249l126.348 81.374c1.311 0.847 2.048 2.212 3.113 3.305 0.928 0.928 2.102 1.447 2.867 2.594l262.69 395.455c8.82 12.916 29.218 42.926 36.727 55.242 15.866 26.106-5.243 57.481-7.7 60.976zM863.617 746.383c0.054 0.082 9.202 7.81 20.998 2.13 22.201-10.814 43.445-25.914 50.845-31.348 2.731-4.806 5.216-11.523 4.724-13.626-5.353-8.766-18.486-28.317-28.235-42.681l-72.745 50.299 24.412 35.226zM889.178 626.805l-235.984-355.232-64.498 44.892 227.929 360.53 72.554-50.19zM561.442 204.535l13.681 71.461 46.749-32.523-60.43-38.94zM646.558 692.423c0 11.305-9.175 20.48-20.48 20.48h-512.901c-11.305 0-20.48-9.175-20.48-20.48s9.175-20.48 20.48-20.48h512.928c11.305 0 20.452 9.148 20.452 20.48zM500.44 489.043c0 11.305-9.175 20.48-20.48 20.48h-366.783c-11.305 0-20.48-9.175-20.48-20.48s9.175-20.48 20.48-20.48h366.783c11.305 0 20.48 9.175 20.48 20.48zM113.179 304.887c-11.305 0-20.48-9.175-20.48-20.48s9.175-20.48 20.48-20.48h220.638c11.305 0 20.48 9.175 20.48 20.48s-9.175 20.48-20.48 20.48h-220.638z"  horiz-adv-x="1024" />

    
    <glyph glyph-name="yonghu" unicode="&#58923;" d="M475.770356 32.050206c-8.011464 0.653893-16.017812 1.358951-24.033369 1.952468-90.170672 6.67298-177.23561 27.432793-262.228353 57.667398-3.455705 1.228991-7.194866 1.857301-10.857279 2.252297-3.485381 0.3776-7.043417 0.080841-12.0832 0.080841 0.769526 13.787004 0.638543 27.109428 2.390443 40.181141 8.909927 66.447365 43.262316 118.27987 94.198405 159.904896 51.392484 41.998533 111.002117 66.029856 176.035272 76.680427 84.759429 13.880125 166.911474 4.538363 245.381663-31.16786 54.768371-24.921599 100.719936-60.845787 133.582391-112.027469 19.685341-30.65723 31.801287-64.076364 35.170011-100.506065 0.11768-1.277086 0.61296-2.518357 0.931209-3.776 0-9.763364 0-19.524682 0-29.288047-5.369288-0.442068-10.978029-0.033769-16.067954-1.466398-27.198455-7.653307-54.110385-16.359596-81.413218-23.604604-66.575278-17.668405-134.091998-30.160927-202.909339-34.971489-8.014534-0.560772-16.017812-1.269923-24.026206-1.911536C511.816317 32.050206 493.793848 32.050206 475.770356 32.050206zM524.208555 763.115504c10.126638-1.815345 20.37812-3.106758 30.356378-5.528923 85.398995-20.730137 143.466506-98.207719 140.719952-187.451276-2.62171-85.190241-66.527183-158.874427-151.301961-174.456311-118.29829-21.74321-225.317699 72.350818-218.908732 192.467523 4.845355 90.816378 75.956949 165.072593 166.628018 174.029592 1.465374 0.144286 2.898003 0.6191 4.344958 0.939395C505.433956 763.115504 514.821767 763.115504 524.208555 763.115504z"  horiz-adv-x="1024" />

    
    <glyph glyph-name="lingdang" unicode="&#58892;" d="M648.190908 8.344487C648.054393-66.841221 587.57819-127.761099 511.84642-127.761099 436.660712-127.761099 375.672577-67.080123 375.536062 8.344487 375.536062 8.344487 648.190908 8.344487 648.190908 8.344487 648.190908 8.344487 648.190908 8.344487 648.190908 8.344487 648.190908 8.344487 648.190908 8.344487 648.190908 8.344487 648.190908 8.344487 648.190908 8.344487 648.190908 8.344487ZM602.970271 807.435809C602.970271 856.239968 562.220504 896 511.948807 896 461.745367 896 420.893214 856.342354 420.893214 807.435809 420.893214 802.453006 421.336888 797.57259 422.12185 792.82869 296.425543 750.20184 205.062792 641.160379 205.062792 486.318091 205.062792 486.318091 205.062792 315.674177 205.062792 315.674177 205.062792 315.674177 193.288362 167.111585 148.920944 165.57579 122.505266 165.57579 102.232769 145.746967 102.232769 121.310759 102.232769 96.669777 122.607652 77.045727 147.760565 77.045727 147.760565 77.045727 511.948807 77.045727 511.948807 77.045727 511.948807 77.045727 830.609252 77.045727 830.609252 77.045727 830.609252 77.045727 876.137048 77.045727 876.137048 77.045727 901.392348 77.045727 921.630716 96.840421 921.630716 121.310759 921.630716 145.917611 901.255833 165.57579 876.137048 165.57579 830.609252 165.57579 819.380883 315.674177 819.380883 315.674177 819.380883 315.674177 819.380883 486.318091 819.380883 486.318091 819.380883 641.331023 734.161312 750.440741 601.775763 792.931076 602.560725 797.640848 602.970271 802.521264 602.970271 807.435809 602.970271 807.435809 602.970271 807.435809 602.970271 807.435809 602.970271 807.435809 602.970271 807.435809 602.970271 807.435809Z"  horiz-adv-x="1024" />

    
    <glyph glyph-name="xingcheng" unicode="&#58883;" d="M104.331465 157.142391 104.331465 71.285589 83.635978 71.285589C37.454438 71.285589 0 108.74054 0 155.016841L0 812.267486C0 858.452446 37.454438 896 83.635978 896L768.981361 896C815.164153 896 852.708717 858.451183 852.708717 812.267486L852.708717 791.387034 766.855912 791.387034 766.855912 809.912866 85.991745 809.912866 85.991745 157.142391 104.331465 157.142391ZM1024 640.277265 1024-44.360124C1024-90.545084 986.452934-128 940.271391-128L255.157583-128C208.883412-128 171.382661-90.545084 171.382661-44.360124L171.382661 640.277265C171.382661 686.462225 208.929727 723.917141 255.157583 723.917141L940.410334 723.917141C986.455436 723.870822 1024 686.462225 1024 640.277265L1024 640.277265ZM938.100883 637.922645 257.373153 637.922645 257.373153-42.143198 938.054567-42.143198 938.054567 637.922645 938.100883 637.922645 938.100883 637.922645ZM518.350056 437.29763C522.321814 437.29763 525.555046 440.529749 525.555046 444.502972L525.555046 518.028322C525.555046 522.000282 522.323067 525.325039 518.443936 525.325039L339.394396 525.325039C335.377575 525.325039 332.189402 522.000282 332.189402 518.028322L332.189402 444.502972C332.189402 440.531012 335.376323 437.29763 339.394396 437.29763L518.350056 437.29763ZM339.393143 253.714534 743.303253 253.714534C747.275011 253.714534 750.508244 256.946654 750.508244 260.918613L750.508244 333.521408C750.600871 333.890697 750.600871 334.168576 750.600871 334.492809 750.600871 338.463505 747.413955 341.696887 743.488509 341.696887L339.394396 341.696887C335.377575 341.696887 332.189402 338.464734 332.189402 334.492809L332.189402 260.874786C332.189402 256.995499 335.376323 253.715797 339.394396 253.715797L339.393143 253.714534 339.393143 253.714534ZM339.393143 70.177758 855.895637 70.177758C859.82108 70.177758 863.100628 73.409877 863.100628 77.3831L863.100628 149.985894C863.14569 150.355149 863.14569 150.633062 863.14569 150.956032 863.14569 154.927957 859.960023 158.16134 856.080893 158.16134L339.393143 158.16134C335.376323 158.16134 332.188153 154.92922 332.188153 150.956032L332.188153 77.33801C332.188153 73.412403 335.37507 70.179021 339.393143 70.179021L339.393143 70.177758 339.393143 70.177758Z"  horiz-adv-x="1024" />

    
    <glyph glyph-name="lingdang1" unicode="&#58982;" d="M803.669333 210.261333 803.669333 484.727467c0 142.830933-103.3728 261.307733-239.274667 285.405867L564.394667 791.927467c0 18.8416-15.291733 34.133333-34.116267 34.133333l-34.133333 0c-18.858667 0-34.133333-15.291733-34.133333-34.133333l0-21.896533c-135.6288-24.3712-238.592-142.6944-238.592-285.303467L223.419733 210.261333l-119.808-96.9728 0-55.330133L922.794667 57.9584l0 55.330133L803.669333 210.261333zM888.661333 92.091733 137.745067 92.091733l0 4.898133 107.127467 86.7328 12.663467 10.24L257.536 210.261333 257.536 484.727467c0 141.1584 114.8416 256 256 256 141.124267 0 255.982933-114.8416 255.982933-256L769.518933 210.261333l0-16.2304 12.561067-10.24 106.564267-86.7328L888.644267 92.091733zM513.1776-61.2352c47.1552 0 85.418667 38.161067 85.418667 85.333333L427.810133 24.098133C427.844267-23.074133 466.090667-61.2352 513.1776-61.2352z"  horiz-adv-x="1024" />

    
    <glyph glyph-name="gift" unicode="&#58940;" d="M85.931-54.016c0-24.576 7.125-31.317 29.44-31.317h353.365v469.589h-382.805v-438.272zM555.264-85.333h353.365c22.357 0 29.44 6.699 29.44 31.317l-0 438.272h-382.848v-469.589zM938.667 640h-213.333c51.499 11.733 105.899 49.707 112.597 94.293 7.851 50.859-52.565 127.957-125.653 118.187-87.424-12.117-151.509-89.259-196.736-149.077-44.885 58.667-103.381 127.189-187.179 147.115-81.152 19.2-136.747-64.939-135.253-116.992 1.451-44.245 52.608-81.835 105.557-93.525h-213.333c-26.368 0-42.667-14.848-42.667-42.667v-170.581l426.667-0.085v213.333h85.333v-213.333l426.667 0.085v170.581c0 27.819-16.341 42.667-42.667 42.667zM251.648 717.824c-14.763 16.427-4.779 38.741 4.48 55.595 17.024 29.696 40.747 47.744 81.152 30.933 56.32-23.509 97.792-73.216 131.584-117.803-71.552-7.893-178.304-10.965-217.216 31.275zM562.944 687.317c34.816 44.629 75.221 89.941 131.157 117.803 58.581 28.971 113.024-49.323 85.205-86.912-21.419-28.544-89.259-31.232-125.909-32.853-30.080-1.536-60.501-0.811-90.453 1.963z"  horiz-adv-x="1024" />

    
    <glyph glyph-name="check1" unicode="&#58914;" d="M511.755 833.416c-247.815 0-448.709-200.659-448.709-448.187 0-247.525 200.893-448.186 448.709-448.186 247.814 0 448.707 200.659 448.707 448.186 0 247.528-200.893 448.187-448.707 448.187v0zM406.269 156.062l-35.824 35.78 0.118 0.117-195.737 195.509 35.823 35.781 195.737-195.508 378.618 378.179 35.826-35.781-414.561-414.077z"  horiz-adv-x="1024" />

    
    <glyph glyph-name="yonghu1" unicode="&#58889;" d="M512 374.248107c124.11904 0 224.75776 100.621653 224.75776 224.75776 0 124.132693-100.635307 224.75776-224.75776 224.75776S287.245653 723.135147 287.245653 599.002453s100.635307-224.754347 224.754347-224.754346z m0 365.213013c77.585067 0 140.468907-62.88384 140.468907-140.47232 0-77.561173-62.88384-140.458667-140.468907-140.458667-77.58848 0-140.47232 62.897493-140.47232 140.458667 0 77.58848 62.88384 140.47232 140.47232 140.47232z m0-421.413547c-229.12 0-417.245867-171.697493-444.982613-393.321813h84.667733c27.081387 174.957227 177.78688 309.036373 360.318293 309.036373s333.236907-134.079147 360.318294-309.036373h84.667733C929.245867 146.35008 741.116587 318.047573 512 318.047573z"  horiz-adv-x="1024" />

    
    <glyph glyph-name="guanyu" unicode="&#58924;" d="M1022.160995 423.291879c-3.046619 44.075847-12.070004 86.939994-26.606319 128.622069-23.954065 68.7083-60.835315 129.618197-110.715266 182.640804-49.047291 52.150102-106.478403 92.349734-172.303552 120.435431C668.064625 873.966674 621.81773 886.602683 573.700158 891.935798c-13.557555 1.504919-27.199909 2.242565-40.803439 3.368445-1.305694 0.105232-2.592997 0.455665-3.888474 0.693714l-33.99912 0c-7.444906-0.619132-14.888791-1.331235-22.340849-1.843092-44.244422-3.069095-87.234235-12.19567-129.084885-26.795328-68.730777-23.971433-129.553832-60.974262-182.513096-110.899167C109.101029 707.479487 69.027061 650.150543 41.015947 584.484774c-18.979556-44.477363-31.613522-90.71915-36.950723-138.838765-1.487551-13.391023-2.224175-26.866845-3.342903-40.304865-0.120557-1.453836-0.47099-2.897455-0.714147-4.342096l0-34.002185c0.619132-7.431624 1.326127-14.853032 1.837984-22.289765 3.063987-44.247487 12.15276-87.247516 26.788176-129.085907 26.516412-75.783362 68.562202-141.7117 125.952446-197.844269 52.170535-51.036482 112.601269-89.065067 180.996938-114.347302 37.107039-13.713871 75.335871-23.127534 114.73145-27.373593 13.557555-1.462009 27.197866-2.235413 40.801396-3.361293 1.305694-0.107275 2.596062-0.457708 3.888474-0.693714l33.99912 0c1.968757 0.248266 3.932406 0.65489 5.908315 0.737645 40.606257 1.748077 80.46363 8.24283 119.469953 19.565994 67.89403 19.709028 129.093059 52.208337 183.664517 97.154646 6.681719 5.508842 13.278639 11.153567 19.558842 17.11603 4.021291 3.814914 6.139212 8.584068 6.32107 13.532013 0.659999 2.332472 1.036995 4.784479 1.036995 7.326392 0 14.807057-11.998487 26.805545-26.803501 26.805545-7.247724 0-13.813994-2.890303-18.637296-7.562398-0.571113-0.463838-1.13201-0.947088-1.686776-1.446684-37.48097-33.759028-79.314252-60.768906-125.685791-80.655704-45.414234-19.48426-92.754315-31.242656-142.021265-35.381439-43.722349-3.668815-87.089158-1.19331-130.019713 7.608373-57.510802 11.783937-110.850127 33.912278-159.779926 66.396262-57.523062 38.179792-104.281813 86.82761-139.773592 146.035405C84.328606 209.661793 63.141223 275.059884 57.271731 345.378336c-4.444263 53.265765-0.084799 105.738714 13.960093 157.291139 25.494742 93.601279 75.69652 171.60473 150.376479 233.339113 72.770459 60.151818 156.602534 94.251061 250.788208 102.62773 42.393157 3.773026 84.510464 1.712318 126.236471-6.438562 78.732922-15.362845 148.754068-49.057508 209.78963-101.184111 43.678418-37.312394 79.23967-81.252359 106.247505-131.962929 29.481297-55.349971 46.914045-114.286002 52.09391-176.872458 4.461631-53.944153-0.411733-106.964717-14.630308-159.144448-10.447593-38.320782-25.871739-74.55225-45.672717-108.969233-2.669623-4.636337-3.629992-9.439205-3.087485-13.849753 0.025542-15.006283 12.193626-27.162107 27.202974-27.162107 5.153301 0 9.953105 1.458944 14.06226 3.947731 3.788351 1.887024 7.162925 5.022528 9.660907 9.330908 38.851029 67.018459 61.54231 139.105421 67.763256 216.352835 0.568048 7.106734 1.287304 14.208359 1.938107 21.314071 0 12.333595 0 24.668212 0.008173 37.001807C1023.384955 408.423522 1022.672851 415.852081 1022.160995 423.291879zM549.97699 581.655771c0 13.997895 0.11034 27.998855-0.03065 41.996749-0.176749 17.392903-3.883366 33.699771-15.385322 47.447357-9.961278 11.914711-25.042143 15.334239-36.469517 7.227291-5.406675-3.837391-10.232021-9.138834-13.851796-14.727367-8.312304-12.853625-10.226912-27.55545-10.219761-42.608729 0.03065-104.484104 0.010217-208.970251 0.025542-313.459463 0-2.831046 0.028607-5.670266 0.204334-8.494161 0.763187-12.297837 3.456308-24.11038 10.053229-34.644815 6.098346-9.755923 13.800713-17.766834 26.286536-18.385966 13.957028-0.688605 22.522706 7.75958 29.165601 18.537173 7.938373 12.86895 10.240194 27.254057 10.232021 42.15-0.03065 52.492361-0.010217 104.982679-0.010217 157.481169L549.97699 581.655771zM464.15266 133.118309c0.130774-26.111831 21.698218-47.672124 47.808006-47.802898 26.055639-0.132817 48.235064 22.177381 47.923455 48.209522-0.054148 4.257297-0.67328 8.383821-1.771575 12.311118-2.544979 23.342085-22.486947 41.620775-46.287762 41.471611-23.697626-0.151207-43.479192-18.429897-45.918939-41.349011C464.751358 141.860736 464.129161 137.554398 464.15266 133.118309z"  horiz-adv-x="1025" />

    
    <glyph glyph-name="renminbi1688" unicode="&#59083;" d="M787.669861 833.250164h-65.742653l-210.480106-375.237589L298.62537 833.250164h-65.917737L454.915321 441.463516H224.561601v-49.146496h253.973731v-149.487257H224.561601v-49.146496h253.973731v-257.529684h66.552546V193.683267h257.045387v49.146496H545.087878v149.487257h257.045387v49.146496H567.906187z"  horiz-adv-x="1024" />

    
    <glyph glyph-name="fanhui" unicode="&#58896;" d="M942.370816 156.74368c-9.64608 0-18.100224 6.795264-20.0448 16.410624-0.272384 1.29024-13.68064 62.48448-70.839296 122.606592-72.793088 76.571648-185.439232 118.69184-326.664192 122.379264v-166.335488a20.468736 20.468736 0 0 0-32.480256-16.569344L99.969024 519.678976a20.465664 20.465664 0 0 0-0.03584 33.113088L492.306432 838.536192a20.466688 20.466688 0 0 0 32.516096-16.543744v-176.61952c25.276416-0.929792 69.371904-4.67968 120.492032-18.245632 81.366016-21.594112 148.922368-59.281408 200.79616-112.014336 79.827968-81.153024 119.105536-194.95424 116.740096-338.240512-0.172032-10.457088-8.20224-19.101696-18.617344-20.043776-0.62464-0.057344-1.248256-0.083968-1.86368-0.083968z m-438.016 302.594048c90.7008 0 171.124736-14.280704 239.036416-42.4448 55.035904-22.82496 102.00064-54.740992 139.585536-94.85824a357.57056 357.57056 0 0 0 31.7696-39.0656c-13.62432 82.953216-46.350336 151.117824-97.818624 203.441152-110.7712 112.60928-274.788352 118.315008-306.541568 118.315008-3.387392 0-5.248-0.06656-5.266432-0.06656a20.493312 20.493312 0 0 0-14.96064 5.71904 20.47488 20.47488 0 0 0-6.270976 14.731264V781.769728L146.80064 536.286208 483.888128 291.92192V438.872064c0 11.301888 9.162752 20.465664 20.466688 20.465664z"  horiz-adv-x="1024" />

    
    <glyph glyph-name="kefu1" unicode="&#58916;" d="M76.8 558.921143c-46.921143-29.842286-76.8-85.321143-76.8-153.6 0-98.121143 59.721143-179.2 157.878857-179.2 21.321143 0 38.4 17.078857 38.4 38.4V541.878857c0 17.042286-12.8 34.121143-29.878857 38.4C226.121143 721.078857 358.4 819.2 512 819.2c153.6 0 285.878857-98.121143 345.6-238.921143-17.078857-4.278857-29.878857-17.078857-29.878857-38.4v-277.357714c0-21.321143 17.078857-38.4 38.4-38.4 8.557714 0 17.078857 0 25.6 4.278857-12.8-72.521143-42.642286-128-76.8-166.4-21.321143-25.6-38.4-42.678857-55.442286-51.2a58.88 58.88 0 0 1-17.078857-12.8c-4.278857 0-4.278857 0-4.278857-4.278857H665.6c-12.8 42.678857-59.721143 72.557714-115.2 72.557714-64 0-119.478857-42.678857-119.478857-98.157714 0-55.442286 51.2-98.121143 119.478857-98.121143 55.478857 0 98.121143 29.878857 115.2 72.521143h76.8c12.8 0 17.078857 4.278857 25.6 8.557714 8.521143 4.242286 17.078857 8.521143 25.6 17.042286 21.321143 12.8 42.678857 34.157714 68.278857 59.757714 42.642286 51.2 81.042286 123.721143 89.6 221.842286C998.4 281.6 1024 337.078857 1024 401.078857c0 68.242286-29.878857 123.721143-76.8 153.6C891.721143 755.2 716.8 896 512 896 307.2 896 132.278857 755.2 76.8 558.921143z"  horiz-adv-x="1024" />

    
    <glyph glyph-name="guanbi" unicode="&#58945;" d="M817.707 645.174c14.122 14.122 14.39 37.69 0.018 52.061-14.471 14.471-37.679 14.363-52.061-0.018L505.469 437.021 245.274 697.217c-14.122 14.122-37.689 14.389-52.061 0.018-14.471-14.471-14.363-37.68 0.019-52.061l260.195-260.195-260.196-260.196c-14.122-14.122-14.39-37.69-0.019-52.061 14.471-14.471 37.68-14.363 52.061 0.018l260.195 260.195L765.663 72.74c14.122-14.122 37.691-14.389 52.061-0.018 14.472 14.471 14.363 37.68-0.018 52.061L557.512 384.979l260.195 260.195z"  horiz-adv-x="1024" />

    
    <glyph glyph-name="dian" unicode="&#59440;" d="M512-128a512 512 0 1 0 0 1024 512 512 0 0 0 0-1024z m0 768a256 256 0 1 1-0.128-511.872A256 256 0 0 1 512 640z"  horiz-adv-x="1024" />

    
    <glyph glyph-name="fangqirenwu" unicode="&#58912;" d="M716.8 793.6V896H307.2v-102.4H146.285714v-921.6h716.8V793.6H716.8zM409.6 793.6h204.8v-102.4H409.6V793.6z m351.085714-819.2H248.685714V691.2h58.514286v-102.4h409.6v102.4h43.885714v-716.8z m-96.548571 425.691429l-71.68-71.68 71.68-73.142858-71.68-71.68-71.68 71.68-71.68-71.68-71.68 71.68 71.68 73.142858-71.68 71.68 71.68 73.142857 71.68-71.68 71.68 71.68 71.68-73.142857z"  horiz-adv-x="1024" />

    
    <glyph glyph-name="dian1" unicode="&#58887;" d="M283.97037 384.011155c0 126.148322 102.009586 228.085403 228.180218 228.035207 126.343529-0.050196 227.985011-102.143442 227.884619-228.894118-0.100392-125.551547-102.455773-227.338039-228.464662-227.198606-125.830414 0.156166-227.605752 102.12671-227.600175 228.057517zM511.994423-128C229.641481-128 0 101.674946 0 384 0 666.319477 229.674946 896 511.994423 896 794.3139 896 1024 666.319477 1024 384c-0.011155-282.325054-229.6861-512-512.005577-512z m0 971.712418C258.498649 843.712418 52.287582 637.490196 52.287582 384s206.2278-459.712418 459.706841-459.712418c253.462309 0 459.723573 206.222222 459.723573 459.712418S765.490196 843.712418 511.994423 843.712418z"  horiz-adv-x="1026" />

    
    <glyph glyph-name="qian" unicode="&#58905;" d="M501.555-32.051c-10.445 0-19.046 0.41-25.805 1.331-8.09 0.82-12.595 2.048-14.95 2.97l-5.222 93.184v10.24H265.216c-6.758 6.553-9.318 12.8-9.318 29.49 0 14.44 2.355 21.198 4.3 24.27l195.38 4.71V257.741H265.216c-6.451 6.144-9.318 12.39-9.318 30.208 0 14.438 2.355 21.197 4.3 24.269l195.38 4.71v45.568l-237.67 409.293c-6.452 10.342-8.602 16.281-9.32 19.456 0.718 3.993 3.687 6.144 12.903 7.168 8.397 1.126 19.559 1.638 33.895 1.638 11.468 0 20.89-0.307 28.262-0.921 6.758-0.512 12.288-1.536 16.384-2.868l12.493-11.161 97.894-175.002c15.155-27.34 29.696-54.989 43.93-83.149l51.917-102.912s37.683 74.65 51.61 103.015c13.823 27.955 28.262 55.808 43.52 83.046l97.177 175.002 10.035 11.366c2.048 0.82 6.554 1.946 14.848 2.765 7.27 0.614 17.1 0.922 29.389 0.922 12.902 0 23.347-0.512 31.027-1.536 8.602-1.23 10.752-3.277 10.854-3.277-1.74-8.5-4.71-15.258-9.523-23.552l-236.339-404.07-1.331-50.689h190.361c7.168-7.475 9.421-14.438 9.421-28.979 0-17.92-2.867-23.961-4.096-25.805l-195.686-4.505v-123.495h190.361c7.168-7.475 9.421-14.438 9.421-28.979 0-16.691-2.56-23.04-4.198-25.293l-195.584-4.3v-98.304c-8.602-6.452-13.722-7.476-20.275-8.192-7.168-0.922-15.77-1.23-25.703-1.23z"  horiz-adv-x="1024" />

    
    <glyph glyph-name="xieyi" unicode="&#58933;" d="M857.368 763.456h-50.536v32.379c0 54.675-44.484 99.16-99.16 99.16h-526.02c-54.677 0-99.16-44.485-99.16-99.16v-690.427c0-54.654 44.483-99.137 99.16-99.137h50.536v-32.4c0-54.654 44.485-99.138 99.138-99.138h457.546l167.633 185.124V664.319c0.001 54.676-44.46 99.137-99.137 99.137zM181.652 73.053c-17.847 0-32.377 14.51-32.377 32.355V795.835c0 17.847 14.53 32.378 32.377 32.378h526.02c17.847 0 32.378-14.531 32.378-32.378v-32.379H331.327c-54.653 0-99.138-44.483-99.138-99.137v-591.266h-50.537z m117.319-99.159V664.319c0 17.846 14.51 32.356 32.356 32.356h526.042c17.848 0 32.356-14.51 32.356-32.356v-554.928h-73.636c-54.653 0-99.138-44.482-99.138-99.136v-68.74H331.327c-17.847 0.022-32.356 14.53-32.356 32.379z m484.762-5.341v41.725c0 17.847 14.509 32.354 32.355 32.354h34.737l-67.092-74.079zM403.851 510.727h367.265c18.448 0 33.38 14.954 33.38 33.38 0 18.425-14.954 33.379-33.38 33.379H403.851c-18.448 0-33.38-14.954-33.38-33.379-0.001-18.426 14.953-33.38 33.38-33.38z m0-200.322h367.265c18.448 0 33.38 14.954 33.38 33.38 0 18.425-14.954 33.379-33.38 33.379H403.851c-18.448 0-33.38-14.954-33.38-33.379-0.001-18.426 14.953-33.38 33.38-33.38z m200.322-133.563H403.851c-18.448 0-33.38-14.954-33.38-33.38 0-18.447 14.954-33.38 33.38-33.38h200.322c18.447 0 33.379 14.954 33.379 33.38 0.022 18.446-14.932 33.38-33.379 33.38z"  horiz-adv-x="1024" />

    
    <glyph glyph-name="fenlei" unicode="&#58884;" d="M155.589 677.813c-20.368 0-36.878-16.509-36.878-36.878 0-20.368 16.512-36.879 36.878-36.879s36.878 16.512 36.878 36.879c0 20.369-16.511 36.878-36.878 36.878zM155.589 407.365c-20.368 0-36.878-16.512-36.878-36.879s16.512-36.878 36.878-36.878 36.878 16.512 36.878 36.878-16.511 36.879-36.878 36.879zM155.589 161.506c-20.368 0-36.878-16.512-36.878-36.878 0-20.37 16.512-36.881 36.878-36.881s36.878 16.512 36.878 36.881c0 20.368-16.511 36.878-36.878 36.878zM893.173 677.813h-565.483c-6.789 0-12.292-5.504-12.292-12.293v-24.587c0-6.789 5.504-12.293 12.292-12.293h565.482c6.789 0 12.293 5.504 12.293 12.293v24.587c0.001 6.788-5.503 12.293-12.292 12.293zM893.173 407.365h-565.483c-6.789 0-12.292-5.504-12.292-12.293v-24.587c0-6.789 5.504-12.293 12.292-12.293h565.482c6.789 0 12.293 5.504 12.293 12.293v24.587c0.001 6.788-5.503 12.293-12.292 12.293zM893.173 161.506h-565.483c-6.789 0-12.292-5.506-12.292-12.295v-24.584c0-6.791 5.504-12.295 12.292-12.295h565.482c6.789 0 12.293 5.504 12.293 12.295v24.584c0.001 6.789-5.503 12.295-12.292 12.295z"  horiz-adv-x="1024" />

    
    <glyph glyph-name="dianhua3" unicode="&#58930;" d="M522.472 859.978c-263.073 0-476.336-213.266-476.336-476.342 0-263.054 213.263-476.32 476.336-476.32 263.075 0 476.32 213.265 476.32 476.32 0 263.076-213.245 476.342-476.32 476.342z m185.355-695.344c-33.571-33.588-158.749-1.751-282.426 121.911-123.676 123.7-155.458 248.857-121.927 282.427 29.136 29.096 64.612 79.957 117.785 13.751 53.212-66.226 27.033-84.724-2.956-114.754-21.025-20.985 22.793-74.064 68.615-119.887 45.862-45.803 98.9-89.585 119.926-68.659 30.03 30.032 48.544 56.192 114.733 2.977 66.186-53.232 15.366-88.667-13.75-117.766z"  horiz-adv-x="1024" />

    
    <glyph glyph-name="shijian1" unicode="&#58908;" d="M512.144958 896C229.376696 896 0.148957 666.770262 0.148957 384.001999s229.229738-512.001 511.997001-512.000999c282.771261 0 512.001999 229.232737 512.001999 512.000999S794.918219 896 512.144958 896z m0-944.32703c-238.768981 0-432.32703 193.560049-432.32703 432.32803S273.376977 816.33003 512.144958 816.33003s432.32903-193.560049 432.32903-432.328031S750.914939-48.32703 512.145958-48.32703zM539.700993 411.135156v276.120184h-80.417755V330.715403h313.431399v80.419753z"  horiz-adv-x="1024" />

    
    <glyph glyph-name="up" unicode="&#59124;" d="M512 652.8l89.6-89.6L960 204.8l-89.6-89.6L512 473.6 153.6 115.2 64 204.8l358.4 358.4z"  horiz-adv-x="1024" />

    
    <glyph glyph-name="zhongzhi" unicode="&#59182;" d="M943.786667 494.933333L839.68 452.266667c5.12-22.186667 6.826667-46.08 6.826667-69.973334 0-184.32-150.186667-334.506667-334.506667-334.506666s-334.506667 150.186667-334.506667 334.506666S327.68 716.8 512 716.8c54.613333 0 105.813333-13.653333 151.893333-35.84L588.8 605.866667l288.426667-61.44-61.44 288.426666-69.973334-69.973333C677.546667 803.84 597.333333 827.733333 512 827.733333 264.533333 827.733333 64.853333 628.053333 64.853333 382.293333c0-247.466667 199.68-447.146667 447.146667-447.146666s447.146667 199.68 447.146667 447.146666c0 39.253333-5.12 76.8-15.36 112.64z"  horiz-adv-x="1024" />

    
    <glyph glyph-name="shouquan" unicode="&#58897;" d="M876.1 707.5L519.6 835.2c-5.3 1.9-11.1 1.9-16.4 0L146.6 707.5c-9.7-3.5-16.3-12.8-16.3-23.2V314c0-55.8 20.5-110.3 61-161.9 31.2-39.8 74.4-78 128.4-113.5 57.5-37.5 119.2-68.6 183.6-92.6 2.6-0.9 5.3-1.4 8.1-1.4s5.5 0.5 8.1 1.4c9.5 3.4 95.7 34.7 183.6 92.5 54 35.6 97.2 73.8 128.3 113.6 40.4 51.6 61 106.1 61 161.9V684.4c-0.1 10.3-6.6 19.7-16.3 23.1zM676.8 80.1c-52-33.7-107.7-62.2-165.4-84.7C453.6 17.8 398 46.3 346 80c-76 50.2-166.6 131.5-166.6 233.9v353l332 119 332-119v-355.6c-1.6-101.2-91.5-181.6-166.6-231.2zM714.9 545.5c-8.7 2-17.8-0.8-23.8-7.3L462.6 296.3 332 433.9c-6 6.8-15.2 9.8-24.1 7.8-8.9-2-16-8.8-18.4-17.6-2.4-8.8 0.1-18.2 6.5-24.4L444.7 243c4.6-4.9 11.2-7.7 17.9-7.7 6.8 0 13.3 2.8 17.9 7.7L727 503.9c6.2 6.4 8.6 15.7 6.1 24.3-2.5 8.7-9.5 15.3-18.2 17.3z"  horiz-adv-x="1024" />

    
    <glyph glyph-name="xing-" unicode="&#58900;" d="M1022.04544 502.912a47.616 47.616 0 0 1-38.656 32.512l-295.872 43.072L555.10144 846.592a47.744 47.744 0 0 1-85.504 0L337.24544 578.496l-296-43.072a47.616 47.616 0 0 1-38.592-32.512 48.128 48.128 0 0 1 12.032-48.96l214.272-208.704-50.368-294.656a47.68 47.68 0 0 1 69.248-50.304l264.704 139.2 264.704-139.2a47.936 47.936 0 0 1 69.312 50.304l-50.496 294.656 214.272 208.704a48.384 48.384 0 0 1 11.712 48.96z"  horiz-adv-x="1024" />

    
    <glyph glyph-name="tuichu" unicode="&#58984;" d="M909.529 551.948c-21.731 51.38-52.836 97.518-92.45 137.131-11.715 11.716-30.711 11.716-42.426 0-11.716-11.716-11.716-30.711 0-42.427C844.81 576.496 883.447 483.217 883.447 384c0-99.217-38.638-192.495-108.794-262.652-70.157-70.157-163.436-108.795-262.652-108.795-99.219 0-192.497 38.638-262.653 108.795C179.19 191.505 140.553 284.783 140.553 384c0 99.217 38.638 192.496 108.795 262.653 11.716 11.716 11.716 30.711 0 42.427s-30.711 11.716-42.427 0c-39.613-39.614-70.719-85.751-92.45-137.131C91.965 498.738 80.553 442.232 80.553 384c0-58.231 11.412-114.737 33.918-167.947 21.731-51.38 52.837-97.518 92.45-137.131 39.613-39.614 85.751-70.72 137.131-92.451 53.211-22.507 109.717-33.918 167.949-33.918 58.231 0 114.737 11.411 167.947 33.918 51.38 21.731 97.518 52.837 137.131 92.451 39.614 39.613 70.719 85.751 92.45 137.131 22.507 53.21 33.918 109.716 33.918 167.947 0 58.232-11.411 114.738-33.918 167.948zM512.001 354c16.568 0 30 13.432 30 30V785.447c0 16.568-13.432 30-30 30s-30-13.432-30-30V384c0-16.568 13.432-30 30-30z"  horiz-adv-x="1024" />

    
    <glyph glyph-name="daiban" unicode="&#58899;" d="M0.116736 896h223.383552v-223.3856H0.116736V896zM360.165376 814.669824H1024v-60.7232H360.165376M360.165376 471.072768H1024v-60.715008H360.165376M0.116736 160.106496h223.383552v-223.387648H0.116736V160.106496zM360.165376 78.774272H1024v-60.7232H360.165376M95.782912 421.455872l-64.393216 55.607296L0 440.711168l99.21536-85.682176 12.773376 14.7968 137.979904 137.302016-33.88416 34.043904-120.301568-119.71584z"  horiz-adv-x="1024" />

    
    <glyph glyph-name="you" unicode="&#58880;" d="M391.991 392.463l383.436 372.786-91.747 75.264-446.921-451.587 473.978-444.55 76.432 84.673z"  horiz-adv-x="1024" />

    
    <glyph glyph-name="jifei-" unicode="&#58944;" d="M414 643.4h196l43.9 143.3c2.3 7.5 0.9 15.7-3.8 22-4.7 6.3-12.1 10.1-19.9 10.1H393.8c-7.8 0-15.2-3.7-19.9-10.1-4.7-6.3-6.1-14.5-3.8-22L414 643.4z m176.9 121.5l-20.7-67.7H453.8l-20.7 67.7h157.8zM512 579.9c-162.3 0-293.8-228.1-293.8-390.4 0-162.3 131.6-240.2 293.8-240.2 162.3 0 293.8 77.9 293.8 240.2 0 162.3-131.5 390.4-293.8 390.4z m0-576.8c-56.3 0-240 13.5-240 186.4 0 143.9 118.7 336.6 240 336.6 121.4 0 240-192.7 240-336.6 0-172.9-183.7-186.4-240-186.4zM605.9 588.7H418.1c-4.7 0-8.6 6.8-8.6 15.1s3.8 15.1 8.6 15.1h187.8c4.7 0 8.6-6.8 8.6-15.1s-3.8-15.1-8.6-15.1m0 0M614.9 208.2h-81.7v23.7h81.7c11.7 0 21.2 8.3 21.2 20.1s-9.5 20.8-21.2 20.8H564l60.2 105.1c5.9 10.2 2.4 23.3-7.8 29.2-10.1 5.9-23.1 2.4-28.9-7.8l-72.4-126.5h-0.3c-0.9 0.1-1.8 0.2-2.8 0.2h-0.1l-72.3 126.3c-5.8 10.2-18.8 13.7-28.9 7.8-10.1-5.9-13.6-19-7.8-29.2l60.2-105.1h-54.5c-13.2 0-20.7-8.6-20.7-20.3 0-11.8 7.3-20.3 19.9-20.6h84.5v-23.7h-83.2c-11.7 0-21.2-9.1-21.2-20.8 0-11.8 9.5-20.3 21.2-20.3h83.2v-51.3c0-11.8 8.7-21.4 20.4-21.4s20.4 9.6 20.4 21.4V167h81.7c11.7 0 21.2 8.6 21.2 20.3 0.1 11.8-9.4 20.9-21.1 20.9z"  horiz-adv-x="1024" />

    
    <glyph glyph-name="right" unicode="&#58881;" d="M632.009 375.537l-383.436-372.786 91.747-75.264 446.921 451.587-473.978 444.55-76.432-84.673z"  horiz-adv-x="1024" />

    
    <glyph glyph-name="goyingsan" unicode="&#58894;" d="M711.091942-21.333333c-15.814029 0-34.30029 8.973913-41.08058 19.942029-6.78029 10.968116-6.78029 28.915942 0 39.884058s25.266551 19.942029 41.08058 19.942029c15.794087 0 28.716522-17.947826 28.716522-39.884058s-12.922435-39.884058-28.716522-39.884058z m183.267246 3.788985c-24.46887-4.706319-34.898551 6.062377-34.89855 36.095073s10.429681 40.801391 34.89855 36.095072c19.204174-3.709217 34.898551-19.942029 34.898551-36.095072s-15.694377-32.385855-34.898551-36.095073z m-534.526145 20.580174c-137.719652-3.071072-256.614029 0.678029-264.231884 8.295884-7.637797 7.637797-13.85971 37.949681-13.85971 67.384116 0 29.414493 25.605565 88.502725 56.894609 131.278377 31.308986 42.775652 73.925101 92.650667 94.724638 110.817855 20.799536 18.167188 73.725681 42.197333 117.598145 53.36487 43.872464 11.187478 127.987942 19.961971 186.916637 19.503304 87.804754-0.678029 108.943304-7.617855 116.999884-38.408348 8.634899-33.043942 30.012754-37.590725 177.00545-37.590725 132.913623 0 167.193971-5.942725 167.193971-28.975768 0-15.953623-10.429681-51.849275-23.132754-79.768116-21.278145-46.664348-33.462725-50.792348-149.565217-50.792347-70.993623 0-126.432464-8.734609-126.432464-19.942029 0-11.047884 52.786551-19.942029 118.455652-19.942029 65.170551 0 124.03942-8.973913 130.81971-19.942029 7.777391-12.623304-42.476522-19.942029-136.782377-19.942029h-149.086608l-21.597218 100.707246c-11.865507 55.359072-21.577275 112.652522-21.577275 127.289971 0 14.617507-17.548986 31.189333-38.966725 36.793043-35.596522 9.292986-36.553739 6.481159-11.087768-32.585275 15.33542-23.531594 30.611014-101.086145 33.981218-172.378898l6.10226-129.623189-250.372174-5.543884zM846.418551 337.623188c-71.232928 0-72.090435 0.897391-37.391305 39.245913 27.380406 30.232116 44.091826 34.659246 72.888116 19.244058 20.560232-11.008 37.391304-28.676638 37.391305-39.245913S886.502029 337.623188 846.418551 337.623188z m-392.877913 100.308406c-34.49971 0.339014-78.412058 9.771594-97.59629 20.939131-19.204174 11.167536-48.35942 46.365217-64.811594 78.172753-16.452174 31.807536-29.913043 81.622725-29.913044 110.678261 0 33.502609 24.807884 77.654261 67.802899 120.649275 37.291594 37.291594 87.086841 67.802899 110.678261 67.802899 23.571478 0 67.583536-12.782841 97.815652-28.417391 30.212174-15.634551 65.669101-51.948986 78.771014-80.705392 13.101913-28.756406 23.830725-79.668406 23.830725-113.151072 0-42.35687-18.825275-78.432-61.939942-118.714899-41.718725-38.966725-82.400464-57.652406-124.637681-57.233623z"  horiz-adv-x="1153" />

    
    <glyph glyph-name="shangyeyunying" unicode="&#59117;" d="M332.672 557.141333a42.474667 42.474667 0 0 0 40.192-1.152l271.274667-156.629333 161.941333 147.946667a40.384 40.384 0 0 0 58.816-3.989334c15.146667-18.048 13.482667-45.44-3.968-61.376l-177.344-162.026666a41.365333 41.365333 0 0 0-15.914667-9.130667 42.517333 42.517333 0 0 0-41.536 0.448L355.968 467.2l-117.866667-131.114667a39.850667 39.850667 0 0 0-58.602666-1.450666c-16.64 16.661333-17.408 44.373333-1.749334 61.802666l133.013334 147.946667a40.512 40.512 0 0 0 21.909333 12.757333zM470.613333 64H469.333333v42.666667H64.064A63.914667 63.914667 0 0 0 0 170.688V746.666667A63.893333 63.893333 0 0 0 64.064 810.666667H469.333333V853.376C469.333333 876.928 488.277333 896 512 896c23.573333 0 42.666667-19.157333 42.666667-42.624V810.666667h405.269333A63.914667 63.914667 0 0 0 1024 746.645333V170.666667A63.893333 63.893333 0 0 0 959.936 106.666667H554.666667v-36.650667c1.472-0.981333 2.901333-2.069333 4.266666-3.264l182.144-118.464c17.856-15.509333 19.754667-42.496 4.309334-60.266667-15.573333-17.92-42.453333-19.626667-60.288-4.138666l-168.192 109.376-173.077334-108.437334a42.624 42.624 0 0 0-60.202666 5.184 42.709333 42.709333 0 0 0 5.333333 60.181334L470.656 64zM85.333333 682.581333v-447.829333C85.333333 210.986667 104.405333 192 127.936 192h768.128A42.645333 42.645333 0 0 1 938.666667 234.752V682.581333A42.581333 42.581333 0 0 1 896.064 725.333333H127.936A42.645333 42.645333 0 0 1 85.333333 682.581333z"  horiz-adv-x="1024" />

    
    <glyph glyph-name="cms" unicode="&#58907;" d="M808.608 435.264c-28.224 0-54.944 7.712-75.296 21.792a85.76 85.76 0 0 0-24.736 25.504 64.896 64.896 0 0 0-9.856 34.048c0 1.024 0 2.08 0.064 3.168-33.376 9.824-62.56 26.24-85.024 48.192a147.84 147.84 0 0 0-31.104 43.072 125.568 125.568 0 0 0-12.064 51.392 126.976 126.976 0 0 0 15.552 62.912 161.152 161.152 0 0 0 43.296 50.304c37.248 29.152 86.912 45.76 139.808 46.688 52.928 0.928 103.136-13.856 141.408-41.696 19.104-13.824 34.24-30.24 45.056-48.704 11.392-19.616 17.408-40.544 17.856-62.304a130.496 130.496 0 0 0-22.656-74.656 172.48 172.48 0 0 0-42.912-43.552c6.848-10.752 10.368-22.688 10.368-34.848 0-11.904-3.328-23.328-9.824-34.048a85.888 85.888 0 0 0-24.768-25.504c-20.384-14.08-47.072-21.76-75.168-21.76z m-34.56 351.904h-4.224c-45.312-0.864-87.456-14.784-118.72-39.296-29.824-23.328-45.92-53.44-45.344-84.832 0.448-25.376 11.68-49.536 32.608-69.888 21.088-20.64 51.136-35.936 84.64-43.264l19.936-4.352-7.2-19.072a27.296 27.296 0 0 1-1.824-9.888c0-14.944 12.16-25.568 19.36-30.592 14.336-9.92 34.464-15.584 55.296-15.584 20.768 0 40.896 5.664 55.168 15.584 7.296 4.992 19.424 15.616 19.424 30.592 0 11.456-7.232 20.32-13.28 25.824l-18.208 16.256 21.312 12.064c20.48 11.68 37.312 26.816 48.608 43.776 11.424 17.152 17.056 35.488 16.768 54.464-0.64 31.36-17.76 60.928-48.448 83.232-31.04 22.624-72.096 34.976-115.872 34.976zM932.64 321.984a78.08 78.08 0 0 0-47.776 15.552c-14.08 10.88-22.144 26.368-22.144 42.496s8.064 31.648 22.144 42.528c12.96 10.016 29.952 15.552 47.776 15.552s34.816-5.536 47.808-15.552c14.016-10.88 22.144-26.4 22.144-42.528s-8.16-31.616-22.144-42.496a78.336 78.336 0 0 0-47.808-15.552z m0 80.992c-9.92 0-19.52-3.04-26.272-8.224-3.168-2.464-8.448-7.648-8.448-14.688 0-7.072 5.28-12.256 8.448-14.688 6.752-5.184 16.384-8.192 26.272-8.192 9.952 0 19.552 3.008 26.24 8.192 3.168 2.432 8.512 7.616 8.512 14.688 0 7.04-5.344 12.224-8.512 14.688a43.648 43.648 0 0 1-26.24 8.224zM56.192 572.128c0 29.824 6.112 58.464 18.368 85.888l100.672-275.712a209.248 209.248 0 0 0-86.432 77.088 205.376 205.376 0 0 0-32.608 112.736z m353.344 10.72c0-3.456-0.224-7.008-0.704-10.56a115.84 115.84 0 0 0-2.72-13.568 416.224 416.224 0 0 0-7.968-28.256l-4.768-15.904-20.864-70.208-76.256 226.528c8.416 0.576 16.48 1.28 24.128 2.208 3.488 0.384 5.888 2.08 7.136 5.056a8.512 8.512 0 0 1-0.704 8.512c-1.728 2.656-4.32 3.904-7.776 3.712l-56.256-2.72a1038.08 1038.08 0 0 0-55.424 2.72 8.064 8.064 0 0 1-5.6-1.376c-1.568-1.088-2.624-2.464-3.168-4.096s-0.672-3.36-0.416-5.056a7.776 7.776 0 0 1 2.496-4.544c1.376-1.28 3.168-2.016 5.344-2.176l21.952-2.208 32.928-89.984-46.08-138.272-76.8 228.256c8.416 0.576 16.48 1.28 24.128 2.208a8.192 8.192 0 0 1 7.136 5.056 8.64 8.64 0 0 1-0.672 8.512 8.32 8.32 0 0 1-7.872 3.68l-56.224-2.72a202.88 202.88 0 0 0-6.304 0.128 219.136 219.136 0 0 1-7.136 0.128A209.536 209.536 0 0 0 166.368 757.44a205.216 205.216 0 0 0 100.832 25.696c26.88 0 52.544-4.832 76.96-14.56A212.544 212.544 0 0 0 409.6 727.712h-2.752c-10.048 0-18.464-3.712-25.216-11.104a37.472 37.472 0 0 1-10.176-26.208c0-2.176 0.192-4.384 0.576-6.56 0.32-2.24 0.704-4.192 1.088-5.92 0.352-1.728 1.088-3.84 2.176-6.304 1.12-2.464 1.92-4.384 2.464-5.76 0.576-1.344 1.664-3.424 3.296-6.208 1.632-2.688 2.752-4.64 3.392-5.728l4-6.592 3.84-6.304c11.552-19.584 17.312-38.976 17.312-58.176h-0.064z m-138.816-29.088l65.024-177.504c0.192-1.088 0.64-2.08 1.344-3.008a210.272 210.272 0 0 0-69.952-12.064 204.16 204.16 0 0 0-59.552 8.768l63.136 183.808z m181.344 119.616c17.376-31.84 26.048-65.568 26.048-101.248a204.288 204.288 0 0 0-28.544-105.728 210.56 210.56 0 0 0-76.512-76.416L437.536 576c10.752 30.912 16.192 56.16 16.192 75.712 0 7.648-0.544 14.912-1.664 21.664zM267.168 817.984c33.312 0 65.12-6.496 95.456-19.488a246.88 246.88 0 0 0 78.496-52.384 246.72 246.72 0 0 0 52.384-78.496c12.992-30.336 19.456-62.176 19.488-95.456s-6.496-65.12-19.488-95.456a247.232 247.232 0 0 0-52.384-78.496 246.784 246.784 0 0 0-78.496-52.352c-30.368-12.992-62.176-19.488-95.456-19.488s-65.088 6.496-95.456 19.488a247.136 247.136 0 0 0-78.496 52.352 246.72 246.72 0 0 0-52.384 78.496C27.84 507.04 21.344 538.88 21.376 572.16s6.496 65.12 19.456 95.456a246.176 246.176 0 0 0 52.384 78.496 247.424 247.424 0 0 0 78.496 52.384 239.936 239.936 0 0 0 95.456 19.488z m0-480.352c31.648 0 61.952 6.176 90.944 18.624a235.776 235.776 0 0 1 74.88 50.08 237.024 237.024 0 0 1 50.08 74.88c12.48 28.992 18.656 59.296 18.656 90.944 0 31.648-6.24 61.984-18.656 90.944a235.744 235.744 0 0 1-50.08 74.912 236.32 236.32 0 0 1-74.88 50.08c-28.96 12.416-59.296 18.656-90.944 18.656s-61.984-6.208-90.944-18.656-53.952-29.152-74.88-50.08a234.688 234.688 0 0 1-50.08-74.912c-12.448-28.96-18.656-59.264-18.656-90.944s6.208-61.952 18.656-90.944a236.16 236.16 0 0 1 50.08-74.88 236.48 236.48 0 0 1 74.88-50.08 228.064 228.064 0 0 1 90.944-18.624zM330.752-40.064H220.512c-92.192 0-138.24 48.992-138.24 147.008s46.048 147.008 138.24 147.008h110.24v-42.016H220.512c-29.184 0-50.752-5.248-64.736-15.744-22.176-16.352-33.248-46.08-33.248-89.248 0-43.2 11.072-72.352 33.248-87.488 14.016-11.68 35.552-17.504 64.736-17.504h110.24v-42.016zM675.488-40.064h-42.016v236.256l-101.504-236.256h-33.248l-99.744 236.256v-236.256h-42.016v294.016h61.248l98.016-227.488 96.256 227.488h63.008v-294.016zM960.736 52.672c0-61.856-33.856-92.736-101.504-92.736h-150.496v42.016h150.496c19.808 0 34.4 2.912 43.744 8.736 10.496 8.16 15.744 22.144 15.744 42.016 0 28-18.08 42.016-54.24 42.016h-63.008c-26.848 0-49.6 6.4-68.256 19.264-20.992 14.016-31.488 34.4-31.488 61.248 0 29.152 11.648 50.752 35.008 64.736 16.32 9.312 36.16 14.016 59.488 14.016h152.256v-42.016h-152.256c-35.008 0-52.512-12.256-52.512-36.736 0-11.68 4.672-20.992 14.016-28 10.496-7.008 25.056-10.496 43.744-10.496h63.008c24.512 0 45.504-5.856 63.008-17.504 22.176-15.232 33.248-37.376 33.248-66.56z"  horiz-adv-x="1024" />

    
    <glyph glyph-name="xuanzhong" unicode="&#58895;" d="M511.971 832c-247.424 0-448-200.576-448-448s200.576-448 448-448 448 200.576 448 448-200.577 448-448 448zM486.24 251.53l0.119-0.119-51.81-51.81-0.119 0.119-0.119-0.119-51.81 51.81 0.119 0.119-109.978 109.977 51.81 51.81L434.43 303.34l265.059 265.059 51.81-51.81L486.24 251.53z"  horiz-adv-x="1024" />

    
    <glyph glyph-name="qian1" unicode="&#58904;" d="M874.984558 880.743203h-136.195261l-153.134837-282.160729c-40.838792-76.467995-65.817322-127.292659-74.937566-152.485864h-2.606774c-26.941276 61.254726-102.961124 206.131977-228.076361 434.644614h-144.013602l267.824958-460.05843h-219.6041v-101.655264h257.397864v-140.102948h-257.397864v-102.960135h257.397864v-203.964447h127.720032v203.964447h248.274651v102.960135h-248.273662v140.102948h248.274651v101.655264h-213.084692l270.431731 460.05843z"  horiz-adv-x="1024" />

    
    <glyph glyph-name="dianhua4" unicode="&#58925;" d="M512-85.333333C252.586667-85.333333 42.666667 124.586667 42.666667 384S252.586667 853.333333 512 853.333333 981.333333 643.413333 981.333333 384 771.413333-85.333333 512-85.333333zM512 896C228.693333 896 0 667.306667 0 384s228.693333-512 512-512 512 228.693333 512 512S795.306667 896 512 896zM667.306667 539.306667c56.32-56.32 81.92-121.173333 73.386666-174.08 0 0-3.413333-17.066667 8.533334-27.306667 11.946667-11.946667 30.72-11.946667 42.666666 0 6.826667 6.826667 8.533333 18.773333 8.533334 18.773333 6.826667 46.08-1.706667 136.533333-90.453334 225.28-88.746667 88.746667-179.2 97.28-225.28 90.453334 0 0-11.946667-1.706667-18.773333-8.533334-11.946667-11.946667-11.946667-30.72 0-42.666666 10.24-10.24 27.306667-8.533333 27.306667-8.533334 52.906667 6.826667 116.053333-17.066667 174.08-73.386666z m-146.773334 22.186666s-15.36 1.706667-27.306666-8.533333c-11.946667-11.946667-11.946667-30.72 0-42.666667 6.826667-6.826667 17.066667-8.533333 17.066666-8.533333 18.773333-3.413333 47.786667-10.24 80.213334-40.96 30.72-30.72 37.546667-59.733333 40.96-80.213333 0 0 1.706667-10.24 8.533333-17.066667 11.946667-11.946667 30.72-11.946667 42.666667 0 10.24 10.24 8.533333 27.306667 8.533333 27.306667-6.826667 39.253333-25.6 80.213333-58.026667 112.64-32.426667 34.133333-73.386667 52.906667-112.64 58.026666zM443.733333 315.733333c51.2-51.2 112.64-100.693333 136.533334-76.8 34.133333 34.133333 54.613333 63.146667 129.706666 3.413334 75.093333-59.733333 17.066667-100.693333-15.36-133.12-37.546667-37.546667-179.2-3.413333-319.146666 136.533333s-177.493333 281.6-138.24 319.146667c32.426667 32.426667 73.386667 90.453333 133.12 15.36 59.733333-75.093333 30.72-95.573333-3.413334-129.706667C343.04 426.666667 392.533333 366.933333 443.733333 315.733333z"  horiz-adv-x="1024" />

    
    <glyph glyph-name="kefu2" unicode="&#59553;" d="M605.53216-5.9392a20.50048 20.50048 0 0 0-4.15744 40.5504c148.72576 30.84288 255.40608 131.95264 285.3888 270.49984a20.48 20.48 0 1 0 40.0384-8.66304c-33.52576-154.8288-152.064-267.69408-317.09184-301.93664a19.33312 19.33312 0 0 0-4.17792-0.45056zM130.19136 406.09792c-0.43008 0-0.88064 0-1.3312 0.04096a20.48 20.48 0 0 0-19.12832 21.74976c13.98784 217.66144 195.93216 388.15744 414.22848 388.15744 205.25056 0 368.31232-122.90048 405.77024-305.84832a20.48 20.48 0 1 0-40.12032-8.21248C855.6544 667.89376 712.13056 775.08608 523.96032 775.08608c-196.75136 0-360.7552-153.66144-373.3504-349.81888a20.48 20.48 0 0 0-20.41856-19.16928zM161.6896 217.43616h-37.888c-30.59712 0-55.48032 25.27232-55.48032 56.34048v106.96704c0 31.06816 24.8832 56.34048 55.48032 56.34048h10.60864a20.48 20.48 0 0 0 0-40.96h-10.60864c-8.00768 0-14.52032-6.90176-14.52032-15.38048v-106.96704c0-8.47872 6.51264-15.38048 14.52032-15.38048h37.888c8.00768 0 14.52032 6.90176 14.52032 15.38048v106.96704a15.62624 15.62624 0 0 1-4.4032 11.03872 20.48 20.48 0 1 0 29.2864 28.63104c10.36288-10.60864 16.0768-24.69888 16.0768-39.69024v-106.96704c0-31.0272-24.8832-56.32-55.48032-56.32zM916.11136 295.23968H878.1824c-30.57664 0-55.45984 25.27232-55.45984 56.34048v106.94656c0 14.97088 5.69344 29.06112 16.05632 39.69024a20.48 20.48 0 0 0 29.32736-28.61056 15.60576 15.60576 0 0 1-4.42368-11.0592v-106.94656c0-8.47872 6.49216-15.38048 14.49984-15.38048h37.94944c7.9872 0 14.47936 6.90176 14.47936 15.38048V458.5472c0 8.47872-6.49216 15.38048-14.47936 15.38048h-10.60864a20.48 20.48 0 1 0 0 40.96h10.60864c30.55616 0 55.43936-25.27232 55.43936-56.34048v-106.94656c-0.02048-31.08864-24.8832-56.36096-55.45984-56.36096zM572.04736 14.52032m-63.71328 0a63.71328 63.71328 0 1 1 127.42656 0 63.71328 63.71328 0 1 1-127.42656 0Z"  horiz-adv-x="1024" />

    
    <glyph glyph-name="dianhua5" unicode="&#58885;" d="M512 896C229.225951 896 0 666.774049 0 384c0-282.774049 229.225951-512 512-512s512 229.225951 512 512C1024 666.774049 794.774049 896 512 896z m0-989.923937c-263.44519 0-477.923937 214.33557-477.923937 477.923937S248.55481 861.923937 512 861.923937s477.923937-214.33557 477.923937-477.923937-214.478747-477.923937-477.923937-477.923937zM594.040268 311.123043c-10.738255-0.42953-19.758389-2.863535-26.917225-4.724833-13.744966-3.579418-24.769575-6.58613-65.431768 70.442953l-4.868009 9.306488c-40.232662 75.740492-31.069351 84.903803-27.489933 88.483221 1.861298 1.861298 3.865772 3.579418 6.013423 5.440716 3.149888 2.720358 6.442953 5.583893 9.592841 8.876958 3.149888 3.293065 6.442953 6.729306 9.306488 10.881432 21.190157 28.635347 8.876957 79.892617-0.286353 107.81208-9.306488 28.348993-25.199105 63.57047-47.964206 70.58613-14.604027 4.438479-59.847875 8.447427-94.496645-26.201342-13.17226-13.17226-23.051454-30.353468-29.494407-51.257271-25.914989-84.331096 19.328859-187.704698 66.863535-277.619687 47.677852-89.914989 107.812081-185.41387 192-211.185682 58.129754-17.897092 94.210291 6.729306 110.532438 23.051454 13.029083 13.029083 20.760626 27.63311 23.337808 36.080537 5.583893 18.183445-4.868009 44.814318-31.355705 79.176734-18.040268 23.337808-53.691275 62.281879-89.342282 60.850112z m96.214766-132.581656c-1.574944-4.868009-7.302013-15.749441-16.894855-25.485459-9.879195-9.879195-27.346756-21.762864-53.404922-21.762863-9.879195 0-20.474273 1.718121-31.498881 5.154362-75.310962 23.194631-131.722595 113.395973-176.966443 198.729307-45.243848 85.190157-88.196868 182.550336-65.002237 258.004474 5.154362 16.751678 12.885906 30.496644 23.194631 40.662192 17.897092 17.897092 38.944072 21.619687 53.548098 21.619687 7.588367 0 13.315436-1.145414 15.463087-1.718121 5.011186-1.574944 18.183445-14.89038 31.069352-54.120805 12.599553-38.514541 14.174497-70.872483 4.008948-84.61745-2.147651-3.006711-4.581655-5.583893-6.872483-8.017897-2.720358-2.720358-5.583893-5.154362-8.304251-7.588367-2.863535-2.434004-5.154362-4.438479-7.302013-6.586129-19.472036-19.472036-13.60179-49.395973 23.051454-118.550336l4.868009-9.163311c34.791946-65.574944 53.404922-85.619687 79.749441-85.619687 6.1566 0 11.310962 1.288591 15.033557 2.290828 6.729306 1.718121 13.458613 3.579418 21.47651 3.865772 18.040268 0 43.668904-19.472036 67.865772-50.970917 30.496644-40.089485 27.346756-54.550336 26.917226-56.12528z"  horiz-adv-x="1024" />

    
    <glyph glyph-name="shang" unicode="&#58888;" d="M958.073 586.611l-446.078-446.078-446.072 446.078h892.15zM958.073 586.611z"  horiz-adv-x="1024" />

    
    <glyph glyph-name="huaban" unicode="&#58938;" d="M921.6 0H102.4a25.6 25.6 0 0 1 0-51.2h819.2a25.6 25.6 0 0 1 0 51.2zM160.512 83.712a25.6 25.6 0 0 1 8.96 1.536l198.4 75.008a51.2 51.2 0 0 1 18.176 11.776L849.92 635.904a51.2 51.2 0 0 1 0 72.448L759.552 798.72a51.2 51.2 0 0 1-72.448 0L223.232 335.104a51.2 51.2 0 0 1-11.776-18.176l-74.752-198.4a25.6 25.6 0 0 1 24.064-34.56z m472.32 588.8l90.624-90.624-327.168-327.168-90.624 90.624z m90.624 90.624l90.624-90.624-54.272-54.272-90.88 90.112zM259.584 298.752l12.288 12.288 90.624-90.624-12.288-12.288L204.8 153.6z"  horiz-adv-x="1024" />

    
    <glyph glyph-name="liebiao1" unicode="&#58913;" d="M376.02734 736.038805c17.723294 0 31.947084-14.336677 31.947084-31.947084v-192.021166c0-17.723294-14.336677-31.947084-31.947084-31.947085H184.006174c-17.723294 0-31.947084 14.336677-31.947085 31.947085v191.908279c0 17.723294 14.336677 31.947084 31.947085 31.947084h192.021166m0 64.119942H184.006174c-52.944108 0-95.95414-43.010032-95.95414-95.954139v-192.021166c0-52.944108 43.010032-95.95414 95.95414-95.95414h192.021166c52.944108 0 95.95414 43.010032 95.954139 95.95414v191.908279c0 52.944108-43.010032 96.067027-95.954139 96.067026zM376.02734 287.989417c17.723294 0 31.947084-14.336677 31.947084-31.947084V64.021166c0-17.723294-14.336677-31.947084-31.947084-31.947084H184.006174c-17.723294 0-31.947084 14.336677-31.947085 31.947084V256.042333c0 17.723294 14.336677 31.947084 31.947085 31.947084h192.021166m0 64.007055H184.006174c-52.944108 0-95.95414-43.010032-95.95414-95.954139V64.021166c0-52.944108 43.010032-95.95414 95.95414-95.954139h192.021166c52.944108 0 95.95414 43.010032 95.954139 95.954139V256.042333c0 52.944108-43.010032 95.95414-95.954139 95.954139zM927.820086 655.775989H584.078492c-17.723294 0-32.172859 14.449565-32.172859 32.172859s14.449565 32.172859 32.172859 32.172859h343.741594c17.723294 0 32.172859-14.449565 32.172859-32.172859s-14.449565-32.172859-32.172859-32.172859zM927.820086 495.814794l-344.080256 0.564437c-17.723294 0-32.172859 14.449565-32.172858 32.172858s14.449565 32.172859 32.172858 32.172859l343.967369-0.564436c17.723294 0 32.172859-14.449565 32.172858-32.172859 0.112887-17.836181-14.336677-32.172859-32.059971-32.172859zM927.820086 207.839488H584.078492c-17.723294 0-32.172859 14.449565-32.172859 32.172859s14.449565 32.172859 32.172859 32.172859h343.741594c17.723294 0 32.172859-14.449565 32.172859-32.172859s-14.449565-32.172859-32.172859-32.172859zM927.820086 47.878293l-344.080256 0.564437c-17.723294 0-32.172859 14.449565-32.172858 32.172858s14.449565 32.172859 32.172858 32.172859l343.967369-0.564436c17.723294 0 32.172859-14.449565 32.172858-32.172859 0.112887-17.836181-14.336677-32.172859-32.059971-32.172859z"  horiz-adv-x="1024" />

    
    <glyph glyph-name="wujiaoxing-ban" unicode="&#58903;" d="M1005.58018 445.618086c35.198587 35.998554 15.999358 98.396049-32.798683 105.595759l-250.389946 38.398458c-19.199229 3.199872-35.998554 15.999358-44.798201 33.598651l-111.995502 237.590459C554.398297 884.80045 532.799165 896 512 896v-71.997109l107.195695-227.990845c17.599293-37.59849 52.79788-63.99743 92.796274-69.597205l246.390106-37.59849-179.992772-183.192644c-27.998876-28.798844-40.798362-69.597205-34.398619-110.395567l41.59833-255.189752-215.191359 118.395246c-17.599293 9.599615-38.398458 15.19939-58.397655 15.199389v-63.99743c9.599615 0 19.199229-2.399904 27.998876-7.199711l223.991005-123.195053c8.799647-4.799807 18.399261-7.199711 27.998876-7.199711 34.398619 0 65.597366 32.798683 58.397655 72.797077l-43.198266 260.789528c-3.199872 19.999197 3.199872 40.798362 16.799326 55.197783l181.592708 184.79258zM512 896c-21.599133 0-42.398297-11.19955-53.597848-34.398619L346.40665 624.010922c-8.799647-18.399261-25.598972-31.198747-44.798201-34.398619L51.218503 552.013813c-48.79804-7.999679-68.797237-70.397173-32.798683-106.395727L200.012528 260.825506c13.599454-14.399422 20.799165-35.198587 16.799326-55.197783l-43.198266-260.789528c-7.999679-50.397976 42.398297-89.596402 86.396531-65.597366l223.991005 123.195053c8.799647 4.799807 18.399261 7.199711 27.998876 7.199711V896z"  horiz-adv-x="1024" />

    
    <glyph glyph-name="xing" unicode="&#58917;" d="M768-89.6c-6.4 0-19.2 0-25.6 6.4l-230.4 128-236.8-128c-19.2-12.8-38.4-6.4-57.6 0-19.2 12.8-25.6 32-19.2 51.2l44.8 275.2L57.6 448c-19.2 12.8-19.2 32-12.8 51.2 6.4 19.2 19.2 32 38.4 38.4L345.6 576l115.2 249.6c12.8 19.2 32 32 51.2 32 19.2 0 38.4-12.8 51.2-32L678.4 576l262.4-38.4c19.2 0 38.4-19.2 44.8-38.4 6.4-19.2 0-38.4-12.8-51.2l-192-198.4 44.8-268.8v-19.2c0-25.6-25.6-51.2-57.6-51.2z m-256 179.2h12.8l243.2-134.4h6.4c6.4 0 12.8 6.4 12.8 12.8v6.4 6.4l-51.2 275.2c0 6.4 0 12.8 6.4 19.2l198.4 204.8s6.4 6.4 0 12.8c0 6.4-6.4 6.4-6.4 6.4l-275.2 44.8c-6.4 0-12.8 6.4-12.8 12.8L524.8 806.4c-6.4 6.4-19.2 6.4-19.2 0l-128-256c0-6.4-6.4-12.8-12.8-12.8l-275.2-44.8c-6.4 0-6.4-6.4-6.4-6.4v-12.8l198.4-204.8c6.4 0 6.4-6.4 6.4-12.8l-44.8-288c0-6.4 0-6.4 6.4-12.8h12.8l243.2 134.4H512z"  horiz-adv-x="1024" />

    
    <glyph glyph-name="shijian-tianchong" unicode="&#58988;" d="M512 896C228.266667 896 0 667.733333 0 384s228.266667-512 512-512 512 228.266667 512 512S795.733333 896 512 896z m249.6-597.333333H471.466667 469.333333c-6.4 0-12.8 4.266667-17.066666 10.666666-2.133333 4.266667-4.266667 6.4-4.266667 10.666667v2.133333V616.5333330000001c0 12.8 8.533333 23.466667 21.333333 23.466667s21.333333-10.666667 21.333334-23.466667V341.33333300000004h270.933333c14.933333 0 27.733333-8.533333 27.733333-21.333333s-12.8-21.333333-27.733333-21.333333z"  horiz-adv-x="1024" />

    
    <glyph glyph-name="mokuai" unicode="&#58928;" d="M784.35 416.683c-72.619 0-240.128 1.587-240.128 1.587s0.46 178.33 0.46 238.08C544.683 788.702 651.982 896 784.35 896 916.702 896 1024 788.702 1024 656.35c0-132.37-107.298-239.667-239.65-239.667zM239.65-128C107.298-128 0-20.702 0 111.65c0 132.37 107.298 239.667 239.65 239.667 72.619 0 240.128-1.587 240.128-1.587s-0.46-178.312-0.46-238.08c0-132.352-107.299-239.65-239.668-239.65zM0 656.35C0 788.702 107.298 896 239.65 896c132.37 0 239.667-107.298 239.667-239.65 0-59.75 0.478-238.08 0.478-238.08s-167.526-1.587-240.128-1.587C107.281 416.683 0 523.98 0 656.35z m1024-544.7C1024-20.702 916.702-128 784.35-128c-132.37 0-239.667 107.298-239.667 239.65 0 59.768-0.478 238.08-0.478 238.08s167.526 1.587 240.128 1.587C916.719 351.317 1024 244.02 1024 111.65z m-414.89-1.212c0-14.13 0.033-12.527 0.102-1.792 1.16-90.572 88.2-165.034 178.978-165.034 91.375 0 165.444 74.086 165.444 165.461 0 91.392-74.07 177.715-165.444 177.715-50.125 0-178.279-0.512-178.279-0.512s-0.477-141.414-0.682-177.63c-0.017 0.598-0.12 1.195-0.12 1.792z"  horiz-adv-x="1024" />

    
    <glyph glyph-name="fapiao" unicode="&#58906;" d="M901.934 475.752c22.313 14.812 22.937 26.138 22.937 45.875V659.246c0 38.002-30.809 68.812-68.812 68.812H167.941c-38.003 0-68.812-30.81-68.812-68.812v-137.619c0-20.557 1.431-34.268 22.937-45.875 31.337-14.593 68.812-44.077 68.812-91.754 0-61.871-38.892-82.001-67.459-91.648-20.107-12.583-24.291-33.305-24.291-45.971v-137.625c0-38.007 30.809-68.812 68.812-68.812h688.118c38.003 0 68.812 30.805 68.812 68.812V246.379c0 25.052-5.752 32.992-22.937 45.875-50.099 25.827-68.812 48.818-68.812 91.749 0.002 42.929 17.527 64.292 68.813 91.749z m-13.942-224.853v-125.596c0-33.636-12.992-47.799-46.8-47.799H186.004c-36.337 0-46.799 14.83-46.799 47.799V253.899c54.409 19.342 93.599 67.761 93.599 128.8 0 61.045-39.19 112.462-93.599 131.801l0.017 125.595c0 32.905 14.279 49.799 46.782 49.799h655.189c31.807 0 46.8-18.228 46.8-49.799V514.5c-54.404-19.337-93.599-70.756-93.599-131.801-0.001-61.039 39.194-112.458 93.598-131.8zM682.941 516.649H341.059c-10.495 0-19.081 8.587-19.081 19.081 0 10.495 8.587 19.081 19.081 19.081h341.882c10.495 0 19.081-8.587 19.081-19.081s-8.586-19.081-19.081-19.081zM682.941 241.099H341.059c-10.495 0-19.081 8.587-19.081 19.081 0 10.495 8.587 19.081 19.081 19.081h341.882c10.495 0 19.081-8.587 19.081-19.081s-8.586-19.081-19.081-19.081zM613.112 379.088H410.888c-10.495 0-19.081 8.587-19.081 19.081 0 10.495 8.587 19.081 19.081 19.081h202.224c10.495 0 19.081-8.587 19.081-19.081s-8.586-19.081-19.081-19.081z"  horiz-adv-x="1024" />

    
    <glyph glyph-name="hehuoren" unicode="&#59014;" d="M76.5369081 406.03006641l69.98697686-36.06315821s31.78447822-18.18438925 48.59357783 15.89223956l173.28653086 362.15968183s16.35066914 30.86761816-10.3910792 45.53737734L281.60791807 830.84184551s-23.68554873 13.29446953-39.11935781-14.66975918C242.03013066 804.86414619 64.77053926 447.1359545 64.77053926 447.1359545s-11.30793925-29.33951836 11.76636884-41.10588809M1218.63879161 369.2028583l71.36226649 32.85414844s34.07662793 13.75289912 17.7259588 48.13514737L1129.55056631 809.90687607s-14.21132959 31.93728838-42.32836846 19.86529922L1010.97001162 792.79215703s-25.06083838-10.54388935-12.83603906-39.73059756C1006.69133252 745.72667989 1179.06100332 385.24790713 1179.06100332 385.24790713s16.04504883-26.89455849 39.57778828-16.04504883M246.00319033 370.42533867l23.53273858 49.96886748L352.35894482 315.87217089s53.789117 12.37760947 72.73755616-21.24058886c0 0 17.87876894-20.47653896 10.08545977-59.13746719 0 0 11.1551291-8.09892949 11.91917899-13.14165937 0 0 37.13282842 8.8629794 59.4430875-17.2675292 0 0 20.47653896-16.5034793 18.03157911-48.13514736 0 0 14.66975918-6.26520938 17.72595878-14.97537949 0 0 36.52158779 9.01578955 54.09473731-12.07198916 0 0 21.54620918-20.32372881 20.01810938-43.85646826l33.77100849-24.60240792s31.47885879-2.59777002 36.67439795-27.35298896l30.25637842-22.31025908s48.44076768-19.10124932 51.19134697 29.1867082l-113.84344423 86.64326631s-13.44727969 34.84067783 28.26984902 29.49232851l169.6190915-119.34460459s27.65860839-11.76636972 44.46770801 14.5169499c0 0 16.35066914 22.76868867-6.87645 47.2182873l-180.31579102 130.34692354s-15.89223955 36.52158779 25.06083838 33.61819835l213.93398936-151.43470225s30.40918857-12.07198916 43.24522851 10.54388936c0 0 17.2675292 22.61587852 0 45.99580781L755.47170459 340.78020000000004s-14.21132959 41.25869825 30.10356827 30.714808l243.57912802-173.59215116s36.8272081-11.61355957 53.3306874 18.49000868c0 0 20.78215927 32.24290869-7.18206943 58.83184776L730.71648565 575.95477822s-64.02738691 30.71480888-102.22988468-33.46538818c0 0-6.72363984-104.3692251-122.55361347-123.31766426 0 0-79.15557568 6.1124001-60.665567 57.91498682 0 0 23.22711914 30.71480888 21.24058888 95.35343555 0 0 2.59777002 46.4542374 34.84067783 86.03202568h-124.08171328l27.35298808 56.53969716h187.34505117s77.01623614 43.7036581 135.0840331 39.57778828c0 0 75.64094648-4.12586982 95.9646753-15.58661923 0 0 100.24335527-32.09009854 145.16949287-24.60240879l167.78537139-347.64273281-26.58893906-60.66556699s49.05200742-50.42729707 12.83603994-111.70410469c-10.08545977-20.47653896-35.91034805-40.34183818-78.23871651-42.17555742 0 0 6.41801953-41.25869825-23.22711914-64.48581739 0 0-21.85182862-29.9507581-74.72408554-21.69901846 0 0 3.05619961-36.36877852-31.93728838-60.66556698 0 0-41.71712783-35.75753789-106.05013506 7.94611933 0 0-10.23826992-40.95307793-61.58242705-49.51043701 0 0-37.43844786-5.80677979-59.29027734 15.28099893 0 0-39.27216797-73.96003652-95.20062452-32.2429087 0 0-35.2991083 29.33951836-10.54389023 70.75102676 0 0-47.67671778-75.33532617-104.36922422-18.64281885 0 0-31.32604864 23.68554873-2.2921497 73.04317647 0 0-44.9261376-51.0385377-94.43657549-4.73711045 0 0-33.77100849 27.50579825-6.87645 78.84995625 0 0-45.99580781-54.24754747-99.4793045-2.44495987 0 0-22.46306924 20.78215927-9.47422001 66.77796709l51.80258759 70.75102588-70.29259629 89.24103633z"  horiz-adv-x="1422" />

    


  </font>
</defs>
</svg>
